<svg xmlns="http://www.w3.org/2000/svg" width="512" height="512" viewBox="0 0 512 512"><path fill="none" d="M393.619 458.077L112.62 260.087a5 5 0 0 1 0-8.174l280.999-197.99a5.001 5.001 0 0 1 7.881 4.087v395.98a5 5 0 0 1-7.881 4.087zM124.181 256L391.5 444.351V67.649L124.181 256z"/><g fill="#202020"><path d="M146.381 243.416c-1.875 1.389-3.717 2.307-3.08 1.688-3.667 3.045-3.997 2.753-4.08 3.704-2.287 2.049-5.232 3.518-2.566 1.277l-6.931 5.43 4.363-2.936c-.821 1.32-6.973 4.69-7.927 6.229l7.747-5.531-.273.438c1.646-1.425 5.14-3.776 6.389-4.552-.132.215.083.262-1.28 1.244 9.421-6.582 1.92-2.65 9.599-8.307a28.54 28.54 0 01-1.961 1.316zM155.216 239.006l2.839-2.931 5.61-3.713c-.089-.258 3.794-3.253.949-1.532-.506.408-1.509 1.21-2.369 1.787.287-.896 7.147-5.383 5.201-4.714-4.261 3.187-5 3.555-7.411 5.817-4.017 2.766-6.994 4.704-8.975 5.846-1.134.904-1.1 1.306-2.563 2.422l1.008-.737.654.583c1.15-1.03 2.384-1.796 3.765-2.791l-5.861 5.349c2.535-.809 8.588-5.648 11.306-7.156-3.547 1.619 2.29-2.051-4.153 1.77zM148.498 241.987l-.157.113.157-.113zM393.914 356.775c.015 1.674.217 2.167.318 2.408l-.017-18.846c-.224.591-.501 6.019-.636 2.392-.248 1.617-.035 6.545.268 7.259l-.342-1.365c.438 4.342-.423 7.308-.682 4.477l.005.366 1.685 12.026c.1-4.416-.579-3.4-.599-8.717zM145.797 273.135c2.042 1.342 2.333 1.449 2.155 1.222a35.438 35.438 0 00-2.155-1.222zM394.91 368.302l.526 3.768c-.141-1.509-.33-2.834-.526-3.768zM386.891 342.205c-.028-.008-.053-.048-.091.051l.27 1.691v-.043l-.179-1.699zM384.071 445.71l-1.678-1.136 1.678 1.136zM383.877 291.152l.507 8.379c-.239-1.117-.168 2.925-.448 1.159.039.639.134 3.633.258 2.816l-.016-1.71c.699 4.419.968 1.743 1.5 9.068.416-4.548.035-6.542-.283-8.951l-.096-2.192-.979-6.967-.443-1.602zM243.528 337.135l.106.009c-.08-.033-.103-.026-.106-.009zM244.062 337.172l-.429-.027c.433.167 1.905 1.073.429.027zM394.457 366.919c.129.114.288.598.453 1.384l-.396-2.811-.057 1.427z"/><path d="M392.929 360.524l-.1-7.059-.362-2.603c.137 2.703.231 5.862.462 9.662zM397.301 452.657l.009 2.895c-6.223-4.376-6.563-4.771-5.285-4.077 1.284.699 4.077 2.411 4.459 2.485-.037-.289-.071-.361-.102-.197-.268-.24-.885-.718-1.966-1.509-5.148-3.51-6.911-4.274-10.346-6.544 3.829 2.599 5.644 3.92 6.519 4.655.869.73.76.848.597.934-.325.174-.855.234 6.796 5.548l-.011-1.204c.068.418.131.914.188 1.547-2.845-1.358-12.059-7.808-17.46-11.824-3.325-2.76-1.746-1.8.692-.232 2.461 1.583 5.85 3.822 6.445 3.833-6.581-4.501-5.411-3.524-8.385-5.155-1.345-.971-2.7-1.929-4.066-2.879l-1.393-.952-1.156-.769-4.506-2.94c-2.876-1.891-5.393-3.648-6.919-5.302-4.447-2.949-4.348-2.481-7.063-3.954-.919.244 6.265 4.882 7.55 6.49-.299-.286-.881-.848-.633-.798l3.682 2.781c-3.433-2.729.916-.245 2.862 1.057 1.399.968 4.184 2.89 3.688 2.786l-2.197-1.355c1.29 1.049 2.862 1.994 4.441 2.969l.61.381 1.101.732 2.168 1.474a80.702 80.702 0 014.17 3.076c.276.396-1.824-.99-2.172-1.111 2.945 1.793 5.715 3.601 8.758 5.629l10.152 6.778-.072-2.314c.085.888.169 1.775.169 2.501l-2.913-1.374a69.833 69.833 0 013.198 1.924c-.233-5.434-.295-11.957-.252-18.716.021-3.379.068-6.817.133-10.19l.025-1.228.026-.661.058-1.297.129-2.469c-.122.809-.208 2.267-.349 1.392-.172-4.283.324-7.519.705-5.535-.6-4.184.504-15.943-.275-21.646l-3.675-26.219c.093.981.167 2.032.198 3.115-.635 2.384-.557 3.668-1.156-.509.336 4.101.846 2.534.873 8.694-.32-2.416-1.049-3.026-1.123 2.874.634 14.753 2.438 24.531 3.361 38.31-.123.128-.206.899-.264 2.066l-.039.947-.03 1.14-.041 4.117-.093 16.951c-.525-4.198-.676-10.555-.781-17.037-.018 4.014-.049 10.924-.07 16.051l.515 1.892c.259.986.516 1.973.516 1.973z"/><path d="M395.658 408.408c-.045.369-.068.75-.092 1.142.042-.208.073-.549.092-1.142zM396.358 430.779c-.02-.084-.033-.058-.054-.09.013.678.024 1.355.038 2.05l.016-1.96zM393.352 370.376c-.139-.875-.178-1.523-.318-2.398l.127 1.867c.066.62.132.915.191.531zM394.213 367.425l.201.469c.017-.377.027-.642.043-.975-.109-.102-.199.008-.244.506zM346.412 414.269l-1.207-.721c.696.48 1.018.654 1.207.721z"/><path d="M377.3 440.427c3.354 2.335 3.582 2.271 4.14 2.448.559.177 1.421.575 5.867 3.705l-2.622-1.901c2.906 1.872 6.735 4.513 10.806 7.366l.008-17.023c.291 1.233.354-5.476.806-4.332l-.04-2.359-.044-1.539-.117-2.908c-.097-1.831-.238-3.409-.472-4.489.152-2.597-.258-6.542-.064-9.844-.273 1.395-.924-4.7-.59 3.335-.037-.648-.1-.241-.139-.883-.381 5.177.266 7.252.274 11.711-.269 2.666-.435-4.359-.543-1.844.063 1.392.074 3.18.071 5.073l-.013 7.27c.015 4.996.124 9.118.632 9.542.062 5.244-.1 6.277-.265 7.335l-.584-.501c-1.597-.794-4.286-2.56-7.31-4.654-3.029-2.1-6.367-4.511-9.408-6.701l-3.363-2.42a76.08 76.08 0 00-2.482-1.702c-1.445-.938-2.418-1.424-2.605-1.133l3.624 2.467 2.162 1.422 2.728 1.717-.457.842zM393.424 378.915zM397.428 314.749l.902 2.127c.217 12.107-.037 16.485-.002 27.071-.123.81-.201-.476-.242-1.126.105 7.442-.084 18.578.33 23.996-.006 2.368-.293 8.585-.559 6.231.079 1.152.156 2.471.127 3.796-.324.351-.092-2.966-.357-3.043-.022 1.051-.086 1.46.018 1.702-.279-1.768-1.102 1.834-1.082-6.41.76-3.192.088 5.718.926 3.833.006-2.734-.318-2.416-.421-2.65.019-3.484.229-3.393.421-3.207-.26-1.336.102-5.718-.293-7.563-.064-6.776.629.369.619-4.057l-.848-2.552.16-7.358c-.299-10.652-1.465 1.523-1.945-10.652.443 1.6 1.186-3.284 1.363-8.951.031 3.391.584 9.658.332 14.035.664-6.171.08 8.493.84 5.291-.359-3.05-.408-8.135-.215-12.1l.078 1.3c.09-4.218-.797-7.41-.457-13.229-.027-2.893.211-2.351.41-1.842-.127-2.447-.293-4.634-.105-4.642zm.177 6.301l-.084 3.869c.139-.918.135-2.361.084-3.869zM199.385 207.75l-1 .621c.233-.116.607-.359 1-.621zM387.301 173.296l.028-2.241c-.028.875-.032 1.592-.028 2.241zM384.502 123.001l-.198-3.274c.013 1.293.091 2.305.198 3.274zM221.263 192.407l.093-.058.396-.334-.489.392zM357.175 97.969c-.448.229-.943.498-1.598.898.123.016.715-.328 1.598-.898zM384.539 123.604l.016-.198c-.018-.127-.035-.268-.053-.404l.037.602zM384.829 195.451l.085 1.435a17.264 17.264 0 00-.085-1.435zM387.233 192.292c.021.517.047 1.01.084 1.394l-.084-1.394zM385.584 269.783l.123 3.017c-.013-1.483-.061-2.369-.123-3.017zM386.678 200.276c.039.176.076.351.115.468-.027-.417-.076-.615-.115-.468zM182.259 216.727l.148-.108.005-.125-.153.233zM176.973 221.961l-2.126 1.584a38.108 38.108 0 002.126-1.584zM320.566 122.096c-.724.36-2.341 1.319-1.706.701-1.148 1.026-.818 1.318 1.706-.701zM191.226 203.919c-.327.37-.765.787-1.206 1.203.841-.744 1.583-1.392 1.206-1.203zM190.02 205.122l-1.227 1.098a37.43 37.43 0 001.227-1.098zM333.125 104.642c.196-.067.475-.206.825-.433-.166-.024-.453.148-.825.433zM173.018 224.668c-.272.439-9.441 7.436-1.458 1.937.057.729-4.916 3.82-6.939 5.436 1.62-.961-.531.868.064.723 1.004-.801 2.146-1.826 3.904-3.01.961-.326-1.554 1.685-3.668 3.043 2.72-1.51-2.921 2.668.804.354 7.522-5.571 12.797-9.567 17.647-14.108-4.273 3.196-9.043 6.786-12.766 9.1l1.19-1.504c4.317-2.457 6.607-4.507 10.612-7.267l-9.097 6.056c-4.444 2.578-1.706.521 1.536-1.883-.815.566-1.568 1.056-1.829 1.123zM176.286 216.526l-.159.093c-.12.108-.274.233-.345.31l.504-.403zM396.594 269.226l.205.938c-.092-.782-.156-1.025-.205-.938zM183.131 214.926l-.006.004c.056-.047.071-.057.006-.004zM396.635 245.878c.015.033.031.066.047.125-.016-.084-.032-.084-.047-.125zM384.906 239.636c-.025.043-.049.056-.074.158.031.498.056.257.074-.158zM396.584 245.861c.018 0 .033-.016.051.018-.018-.018-.035-.059-.051-.018zM394.588 132.323s-.094.358-.184.923c.051.22.11.001.184-.923zM393.782 154.735l-.06.41.06-.41zM326.31 121.046a65.319 65.319 0 002.144-1.546c-.67.455-1.383.96-2.144 1.546zM396.682 246.003c.059.234.117.567.191 1.117-.078-.606-.138-.926-.191-1.117zM391.84 98.153l.059.689.027-.409-.086-.28z"/><path d="M392.24 86.457c.061.399.125.583.182.807a93.535 93.535 0 01-.102-3.626l-.046-4.333c-.04-2.779-.123-5.041-.412-5.188.007.732-.074 3.113-.2 5.067-.125 1.969-.295 3.474-.465 2.89.145 2.804-.261 7.182-.166 8.725.316-4.777.488-.516.684 2.709-.168 2.933-.465-.552-.572 1.974l.064 6.786.076-5.911.557 1.796-.053-.603c-.259-10.002.815-.85.453-11.093zM392.422 87.263c.035.625.077 1.175.137 1.602-.01-.943-.067-1.309-.137-1.602zM373.073 78.383l-1.396 1.092 1.396-1.092zM392.559 345.847c.164-.176.502-6.003.073-5.898l-.134 5.222.061.676zM283.514 144.528a67.648 67.648 0 001.602-1.115l.271-.272c-.361.177-1.366.98-1.873 1.387zM390.996 80.419c.066.978.133 1.42.201 1.655-.033-.661-.088-1.258-.201-1.655zM282.628 143.907c-.746.376-1.85.926-2.085.892-1.385.971-2.227 1.839-3.588 2.896 1.553-1.17 3.415-2.43 5.673-3.788zM276.846 147.782l.109-.087-.109.087z"/><path d="M392.377 349.314c.028.502.059 1.018.09 1.549l-.115-.806-.129 4.009c.027.483.053 1.007.068 1.65a2.153 2.153 0 0 0-.107-.585l-.051 1.284c.443 3.192.768 11.137 1.027 13.429.189 3.031.297 6.742.264 9.07.008-2.157-.08-5.021-.326-4.161-.254 4.38-.989 6.509-.357 14.068l-.01-4.434.95 9.969c-.394 3.492-.474-4.976-.817-6.359.469 7.753-.783 14.201.041 17.795-.488.507-1.303 1.356-1.255 6.443.558-3.668.358 3.05.954.041.279 1.757-.176 5.675.189 5.967l-.203-.476c-.386 4.343-.276 7.226-.021 9.487l.45 3.354c.157 1.13.309 2.254.408 3.457.089 5.796.074 10.225.039 14.077-4.179-2.998-7.754-5.61-12.474-8.881-.278-.595-2.293-3.115-4.913-4.92-1.549-.55-7.941-4.804-8.909-4.791 4.838 3.697 4.343 2.479 7.397 4.468 1.067 1.116 1.039 1.275 1.142 1.491.051.107.135.229.404.49.135.131.316.297.563.514.271.234.494.438 1.054.888a43.447 43.447 0 0 0-1.387-1.043l-1.805-1.277-4.476-3.084c-3.14-2.168-6.289-4.392-7.624-5.674l1.102.681c-4.581-3.642-4.687-5.432-13.133-10.345l-3.997-2.391c.216.082.274.043.401.07-6.181-4.428-4.112-3.76-11.268-8.179.553.342.256.057.816.405-3.728-3.017-8.04-5.272-11.074-7.247-1.532-1.658.696-.078 2.01.429-6.774-4.997-14.667-9.566-19.272-12.105l-4.275-3.352c2.743 1.693 6.244 3.551 5.606 2.752-2.493-1.641-2.15-1.126-5.548-3.631.763.168 2.372.957 4.214 1.789-6.843-5.44-2.213-.247-6.671-4.523-2.238-1.585-3.794-2.141-4.25-2.015l-3.785-3.252c-.72.063-5.748-3.448-9.073-5.706-.517-.119 2.358 2.27 3.708 3-.456.126-4.051-2.196-6.294-3.786-.262-1.378-14.799-10.255-11.479-9.322-10.279-6.854-24.521-16.769-31.42-21.132-2.042-1.769-6.514-4.936-3.565-3.418-8.125-5.73-12.894-7.866-20.808-13.769-.597-.57 3.652 2.563 3.552 2.095-5.498-3.396-9.356-7.098-17.688-12.649 1.386.955 1.904 1.074 2.153 1.126.05.232-3.545-2.088-5.752-3.451-1.141-.907 1.652 1.021 1.056.449-15.532-11.523-28.337-18.924-44.031-30.035 4.482 3.173 6.551 3.841 6.751 3.658l-4.391-3.108c-1.88-.931-5.182-3.258-8.082-5.006-.27-.338-1.537-1.392-.079-.551-8.311-6.655-14.249-8.597-24.702-16.372l13.642 8.018-2.928-2.618 6.01 3.51c-3.179-2.678-6.6-4.077-6.725-4.765.794.392 2.493 1.642 2.699 1.464-3.14-2.446-3.605-2.328-6.104-3.973 7.011 3.722 19.624 12.628 26.558 17.215 1.114.688-1.053-.448-1.301-.499 2.791 1.926 4.276 3.352 7.864 5.669 2.409 1.183-1.475-1.418-3.169-2.665.448-.133 1.3.495 3.247 1.799.135.692 10.414 7.549 12.538 9.775 10.321 7.084-.908-2.187 8.959 5.025l2.662 2.559c6.048 3.733 13.768 8.705 20.262 13.426l-1.394-.959c-1.059-.454.379.738.982 1.313 4.821 3.689 9.668 6.274 12.351 8.849 5.998 3.5 15.681 9.785 22.324 14.091 1.321 1.831-8.795-5.434-11.751-6.953l5.888 4.146c-3.645-2.556-5.243-3.34-7.666-4.534 5.08 3.747 7.148 4.416 12.146 7.709-.496-.104.086.456 2.339 2.051l.922.051c.019.063.247.269.925.785l8.874 5.887c-1.726-1.472-1.57-1.883-3.814-3.472.638.799-1.301-.498-3.546-2.09 2.155 1.128-2.039-1.766-1.839-1.948 4.502 3.188 10.082 7.039 13.116 9.014l.701 1.045c4.231 3.121 8.916 6.114 11.756 8.275l-1.058-.452c5.078 3.746 10.322 7.087 14.648 10.672 4.896 2.82 10.934 6.55 15.003 8.759 2.346.941 13.076 10.106 18.733 13.092.313.297-3.813-2.152-5.71-3.22 3.398 2.504 6.557 3.846 7.286 5.107-7.623-5.622.135.692-3.453-1.622 3.631 2.544 7.517 5.146 9.42 6.221-5.868-4.129 2.57.776-3.521-3.189 4.898 2.821 11.296 7.078 16.664 11.104-.206.178.399.754 2.38 2.283l1.869.85c2.526 1.864-5.222-3.126-.136.625 5.692 3.21 15.791 11.58 18.815 12.23 3.774 3.244-7.987-5.035-2.22-.255-3.804-2.145-8.414-6.006-9.933-6.337 3.58 2.312.976 1.313 3.218 2.9l4.098 2.43-.846-.623c6.843 4.123 17.007 11.62 25.382 17.402 3.208 1.76 4.965 2.349 6.764 3.268-.14-1.517-.221-2.871-.198-4.344.178.838.264-.037.387-.816.123-.733.284-1.487.611.478.315-1.79-.059-7.671-.322-7.532-.045 2.104-.066 2.475-.092 2.762l-.047.575-.076 1.616c-.02-.038-.038-.25-.056-.411l-.049-.547-.074-1.25a69.451 69.451 0 0 1-.067-2.855c-.011-1.961.045-3.907.15-5.04-.023 1.05.037.65.139.882.215-5.025-.318-2.408-.453-6.041.449-1.152.121-8.02.352-11.337l-.639-4.81c.42 2.643.154-4.609.541-5.367-.297-3.449-.816-6.341-.703-11.594.219 2.17.316-4.792.742-4.884.408-8.994-1.162-14.896-.553-23.414.1.265.381 1.984.487-.506-.119-1.961-.069-5.396-.115-7.494l.013.066-.013-.109c-.022-1.027-.075-1.674-.179-1.699-.418-3.592-.844-5.443-1.197-12.512-.488.519-.299 6.486-.143 9.07l.482 2.233c-.736 2.134.127 6.374-.121 8-.863-4.24-.65-16.452-1.182-23.778-.68 4.467-.785 14.184-.703 22.661l.293-3.733.009 4.436.519-4.294c-.09 4.202.043 7.835.014 11.633-.01-4.446.662-6.179.557-3.663-.479 4.955.313 5.163.283 8.951.044-2.109.053-4.851.332-3.083-.586 7.468-.205 9.485-.83 16.276.813-.842.08 8.485.747 9.503l.067-3.151.492 6.685c-.662 6.168-.676-5.461-1.145 3.925-.082 8.661.773 8.438.836 15.246-.481-2.243-.895-7.644-.881-13.138l-.232 3.327c-.279-1.76-.221-9.36-.192-13.153.554 6.268.17-2.933.603-5.784-.467-.523-.393 3.5-.768-1.251.01 4.451.049 5.103-.127 10.765.211-12.24-1.619-11.007-1.227-21.689.211 4.925.672-1.717.898-2.31-.057-2.317-.167-7.018-.283-8.951l-.674 1.75c-.291-6.225 1.135-8.387.441-15.569-.404-.934-.137 6.318-.215 5.026-.424-9.829.662-13.369 1.168-22.097-.201-.493-.629-.392-.984-3.444.404.959.611-1.3.906 2.135.172-2.918-.125-6.375-.283-8.949-.236 6.074-.58-2.484-.822-3.604.068-3.146.402.958.52 2.895.109-2.526.705-5.527.1-6.962.426-.1 1.119 7.061 1.23 11.743l.068-3.156c.217 2.175.156 2.582.09 5.716.33-3.068.693-2.766.997-2.051-.062.402-.101-.224-.161.16-.109 2.523.008 4.459.234 3.874.571 2.27.357-3.5.643-5.209l-.115-3.851-1.836-13.11c-.215-5.601.225-8.119.502-12.326l-.49-1.155c.051-4.873.205-9.472.828-6.349-.164.176-.125.819-.148 1.877.066.141.113.385.152.692.029.102.057.157.086.241l-.281-8.777c.713 8.861.893.442 1.764 1.925l-.285-8.951c-.275 5.426-.426.1-.543-1.826.49-.531-.004-7.208.064-10.35l.1.231c.17-2.907.123-8.002-.01-11.627-.164.166-.965-4.484-1.447-6.718-.184 6.219-.381 2.528-.684 3.027.027-.644.033-1.801-.029-1.936-.14-.89-.186 1.208-.348 1.384.229 6.611.293 13.413.977 16.109.309-2.03-.297-3.459-.09-5.731.461 3.276.369 7.501.357 12.993l-.411 1.801.222 5.527c-.217-2.307-.645-.918-.727-6.718-.387.74.088 5.751-.043 9.303l.545 1.815c-.303-.699-.361 6.901-.775 1.501l-.445-8.786-.373 2.442-.104-7.428.281 1.753c-.377-11.932 1.084-3.518.44-15.529-.659-3.759-.73-7.801-.569-15.163.146 5.326.465.547.846 2.551.275-5.433-.268-7.267-.525-10.085.349-1.384.633-2.368.582 2.485.73.608-.125-6.385.625-6.827-.021-16.078-2.426-12.884-1.486-31.678l.303.705c-.377-11.935-.016-18.82-.254-29.873l.77-8.702c.119 1.946.694 7.178 1.066 4.736-.779 4.232-.508 8.725-.926 13.285.203.466.35-1.391.475-2.2-.008 2.752-.357 4.133-.222 7.769.161-.176.354-4.141.448-1.152l-.479 4.945c.229 6.616 1.147 3.258.928 11.029-.428-1.445-1.047-4.395-1.15-7.404-.092 3.551-.258-4.734-.514-1.493.633 5.115.131 7.585.528 14.387-.089-.799-.212-1.01-.251-2.684l-.268 9.869c.37-2.442.406 8.152.957 7.234.229-10.518-.104-7.428.209-19.413.125 3.393.686 7.768 1.201 9.818-.021.104-.039.277-.049.646.545 1.832.691-.036 1.645 0-.678-5.471-.121-9.129-.511-15.582-.522-1.213-.665 3.744-.53 6.952l-.346-5.685.24 1.119.174-14.43c.028 2.734.331 3.663.559 5.09.021-1.862.158-3.706.311-5.667-.498.412-.85.153-.841-1.664.118-9.284.565-14.445 1.135-17.871l-.035-1.081c-.511 1.557-.917-6.593-1.438-9.47.527.143.316-4.784.586-7.46-.605-1.424-1.441.476-1.938 3.734.555 6.277.559 3.518 1.345 6.483l.524 10.07-.484-2.251c-.213 5.026.426 9.854-.203 9.485-.419-2.655-.164-7.041-.585-9.676l-.229 3.325c-.618-5.866.594-3.007.164-10.108-.535 2.612-.039-.644-.396-3.686-.373 2.442.152 12.504-.756 10.371-.396-3.693 1.064-12.426.161-17.312l.103.239c.117-7.209-.4-9.742-.727-12.441.293-3.068-.121-7.303-.153-10.627l.265.082-.111-4.69c.482 2.233-.012 5.497.058 9.526l.491-.501c-.583 4.645.303 7.743.725 11.344-.424-5.242.121-14.804-.838-16.035l.494-3.243-.178-1.552c.371-2.417.955.051 1.066 4.736-.125.814-.186 1.221-.289.974.22 2.175.601 4.171.488 9.434l-.26-2.808c-.035 6.553.154 12.51.637 14.753.204-9.46.248-18.762.225-27.645-1.108-2.62-1.73-5.728-2.762-7.063-.095-2.98-.178-6.493-.189-9.907-.007-1.708.005-3.391.042-4.97l.032-1.164.021-.565c.007-.069.015-.059.022-.093a3.39 3.39 0 0 1 .117-.3l.203.015c.105-.455.051-.884-.066-1.054.135-.364.271-.477.392-.492.121-.025.226.035.3-.268-.093-.453-.186-.828-.186-1.304l-.434.502a3.29 3.29 0 0 1 .558-.741c.186.216.193 1.426.218 2.047-.04-.143-.117-.391-.18-.226-.097.549.055 1.083.145 1.757l.016.122.015.449.021.905c.01.587.012 1.14 0 1.64-.023.999-.101 1.786-.269 2.22.117 1.933-.498-3.927-.533 2.617-.255 4.383.352 5.81.553 6.268.266.071.363-6.878.682-4.467-.033-3.411-.375-4.769-.119-9.131.031 3.38.568 7.972.157 9.772.493 6.685 1.733 5.726 1.802 2.574-.389.75-.479-12.194-.986-3.429-.25-1.969-.375-4.751-.478-7.686l-.038-1.106-.019-.556-.018-.237-.075-.756c-.052-.484-.11-.925-.188-1.272l.101-.006-.125-1.93c.139.057.256.564.52.278-.151-.534-.303-.962-.303-1.579a43.48 43.48 0 0 0-1.172 1.322c.786-.845.711-.893.264-.638-.435.246-1.156.734-1.474.83-.175.37-.475.795-.598 1.07-.13.279-.093.415.239.322.686-.124.464-.594 1.271-1.202 0 0-.371.457-.658.854-.295.403-.505.746-.505.746l-.063-.032s-.134.254-.227.479a3.716 3.716 0 0 0-.151.426c-.376.242-.471-.062-.478-.345-.008-.138-.006-.261-.103-.242-.047.01-.12.056-.223.148l-.082.078-.415.323-1.078.853 1.302-.047c-7.997 5.506-18.65 12.034-24.069 16.254 1.313-1.42 1.621-2.433-.729-1.25 2.489-1.604 7.334-5.048 10.764-7.546.74-.368-3.849 3.74-7.705 6.27 2.496-.334 9.072-7.252 10.195-6.6 4.919-3.214 6.545-4.708 8.011-6.044.732-.669 1.425-1.298 2.469-2.084l.854-.622c.141-.1.221-.149.352-.227.243-.141.532-.281.848-.397-.033-.621.716-.819.956-1.557-.188-.13-.602.032-1.131.354-.265.16-.557.359-.86.579l-1.326.982c-3.039 2.235-6.396 4.781-9.127 6.521.496-.396 1.492-1.195 1.639-1.419-3.869 2.537-5.363 3.733-7.892 5.753l.369-.183c-4.317 3.671-3.082 1.689-5.931 3.414-1.007.805-4.871 3.341-4.041 3.229l-5.206 3.056.576.314c-2.754 1.982-3.585 2.092-5.893 4.157l.187.512 6.994-4.704c-3.392 2.601-.683 1.098-4.455 3.891 3.953-3.49-3.2 1.897-3.903 1.795l-2.651 2.23.641-.623c-2.37 1.339-2.523 2.018-5.147 3.783 3.217-1.908 5.427-3.012 9.095-6.055-2.657 2.234-8.076 6.454-9.442 7.438-2.842 2.272-5.146 3.405-7.959 5.313 5.21-3.929-2.786.011 8.115-7.208-.14.222-1.018.813-1.389.998 1.813-.454 6.381-4.547 8.549-6.389-.82.104 1.547-1.682-2.684 1.037 1.491-.747-2.962 3.144-7.052 5.637l.21-1.163-5.745 3.929.51-.407c-2.447 1.071-6.01 4.361-10.108 6.864-2.657 2.234-13.643 9.687-8.475 7.107-3.815 2.053-6.521 4.768-10.293 7.562l4.978-3.093c-5.312 4.469-3.904 3.008-7.886 6.968-.588.137-1.703.695-.922-.148-7.621 5.316-18.604 12.768-22.669 16.463-5.375 3.743-6.777 3.537-14.069 9.143-1.515 1.21 1.68-.235-3.432 3.074-.37.186 4.436-3.876-1.066.081-3.577 3.3-9.469 6.24-14.282 10.308-2.842 1.721-7.493 5.104-6.805 4.001 4.358-2.93 10.371-7.295 11.157-8.145-.417.667 3.222-1.91.194.51 6.708-4.259 4.031-3.222 10.001-7.11.285-.448-3.314 1.652-4.458 2.678-.424-.544 11.284-8.358 5.635-5.389-6.254 4.333-7.272 6.809-13.08 10.014 1.919-1.865 5.502-3.956 7.83-6.481l-4.589 2.894-2.928 2.672.133-.218c-8.186 4.996-6.827 5.679-13.627 10.893 4.331-2.466-.249 1.638 2.97-.272-4.63 3.37-8.12 5.716-8.548 5.175 8.432-6.629.077-.946 7.775-7.212-1.471.734 1.347-2.183-3.521 1.154-5.152 4.232 1.957-.676-3.333 3.329-.355.176-.724.359-.593.144-2.287 2.049-2.983 1.943-5.772 4.393l.636-.617c-3.961 2.279-3.796 3.254-7.261 5.138 1.576-.484-1.908 1.858-3.71 3.519 3.357-2.129 5.537-2.767 11.918-7.312.541-.876-.057-.73 2.461-2.743l-4.134 2.973c.86-.687 1.484-1.254 2.261-1.901l4.119-2.646c-4.903 3.809-2.329 2.524-4.241 4.386-4.741 3.124-3.764 2.789-6.757 4.736-.049-.692-9.53 5.473-15.092 8.925l2.492-1.728c3.664-3.04-2.955 1.477-3.192 1.444l-2.657 2.235c.509-.409 1.165-1.041-.09-.26-3.764 2.788-3.203 3.112-6.96 5.896-.475-.065 2.47-2.748-.005-1.213-.983.344-4.03 1.563-8.941 5.376-.288.355-1.563 1.34-3.059 2.46.202-.164.461-.362.543-.449l-3.578 2.085c2.553-2.48 5.963-3.879 8.529-6.372l-.06-.606c2.247-1.585 5.167-3.923 6.412-5.137-3.479 2.341-4.12 2.963-7.889 5.753-.729.104 1.826-2.001 2.194-2.305l-.398.65c4.823-2.861 6.54-5.229 12.286-9.158.871-.587.37-.186.236.031 4.31-3.665 9.234-6.273 13.32-9.981l-1.299 1.257 14.242-11.566-.071-.203c-.732.365 1.507-1.205 2.755-1.981l-.004.007 7.824-6.318a30.145 30.145 0 0 0-2.965 1.767c-.794.856-6.381 4.55-5.313 4.47-2.72 1.51-6.519 4.77-8.496 5.907 3.587-2.094-2.057 2.085-2.474 2.75-1.337.517-4.998 3.554-4.824 2.86-.738.371 1.84-.917 3.118-2.16 3.292-2.853-6.708 4.258-2.532.809-5.425 4.224-12.906 9.32-18.449 13.752l3.352-2.128c-2.613 1.758-8.646 6.136-9.231 6.272 1.881-1.393 4.12-2.962 6.513-4.764-.185-.515-5.878 4.146-6.338 4.072l-6.604 5.721 3.129-2.169c-1.776 1.643-8.507 5.913-13.374 9.251 2.352-2.54 7.267-5.143 12.176-8.956 3.529-2.822-2.678 1.034.711-1.565-1.001.5-3.267 2.121-4.285 3.06l-1.452.863c2.735-2.729 9.797-7.527 14.117-11.261-.367.345-.68.656-.765.809 3.723-2.312 7.35-4.88 10.736-7.479-1.963 1.13-2.612 1.759-3.623 2.564-.225-.041 3.026-2.417 4.168-3.441-3.354 2.129-.828.11-2.942 1.467 2.022-1.616 3.76-2.785 6.374-4.542 1.478-.738-.907 1.057-.448 1.13 2.539-2.028 4.199-2.247 7.862-5.287-5.239 3.524.953-1.536 2.605-2.967l-.878.591c1.417-1.464 2.797-2.456 4.129-2.968-2.023 1.616-4.129 2.968-3.305 2.861 1.386-.997 2.768-1.99 4.28-3.199l-1.275 1.241 6.888-4.953c.901-1.053 2.457-2.739 3.127-3.828 1.842-.919 4.01-2.762 5.52-3.971l-.652.634c3.227-1.917 9.892-6.911 10.292-7.563 2.341-1.319-14.338 12.458.947 1.344 5.871-4.14 3.102-3.366 6.261-6 0 0-.132.214.237.031 2.61-1.753 2.657-2.235 4.68-3.851-1.625.966-3.862 2.534-4.501 3.155.542-.875 5.373-3.742 7.159-5.389-2.197 2.309 5.104-3.306 3.305-1.647 5.342-3.273 10.522-7.526 12.942-9.793 3.919-1.805 6.022-4.37 11.859-8.041-.879.59-2.381 1.792-3.64 2.577-2.923 2.665 5.982-3.897 1.305-.048 1.012-.808-.077-.268-1.115.559-1.862 1.38-3.521 2.815-2.914 2.665l4.839-2.874-1.532 1.226 7.311-4.41c.132-.215-.592.144-.963.33 8.229-5.471 17.266-12.252 24.386-17.17.524-2.079 17.07-12.759 22.292-17.488-1.302 1.408-1.732 2.576-.617 2.146-1.24.946-3.524 3.246-6.482 5.187-.591.142-4.308 2.45-2.158.621-7.896 5.759 1.435-.261-.624 1.826 8.773-6.348 13.494-10.675 18.892-14.88l.236.035 4.039-3.228c-3.501 2.353-3.786 1.585.817-1.319l-.519.413c2.727-1.514 7.774-5.549 11.763-8.296l2.421-2.266c3.995-2.751 4.656-2.174 6.24-2.666a104.1 104.1 0 0 0 7.583-5.77l.776-.65.488-.398.577-.461 2.319-1.859 4.897-3.877c2.155-1.204 9.489-6.223 11.112-7.122-.057.764-.119.984-.194.374-.338.29-.928.762-1.77 1.417a80.584 80.584 0 0 0 1.729-1.337c.254 3.406.789 4.485 1.134 7.159.172 1.333.296 3.077.313 5.651.018 2.549-.072 6.014-.328 10.313l-.358-4.711.054 6.07.095 4.677.227 9.418c.141 6.063.225 11.367.035 13.958-1.289-4.149-1.311 14.046-2.574 16.045.288-.557.385 3.668.539 4.284-.148.926-.293 2.467-.031 4.103.254-4.385 1.311 3.083.801-5.301.867 4.243 1.543 9.709 1.5 19.003l-.527-.14.16-7.354c-.389.743-.359-3.042-.539-4.594-.295 13.68-1.233-1.791-1.164 12.194.342 1.351.2.476.336 4.11-.018-1.709-.381-2.017-.389.738l.422 2.646c-.879 4.884-.572-8.084-1.19-3.917-.414-5.4-.636-14.753-1.308-13.011-.244 8.819 1.26 7.934.954 17.154l-.286.982c.195 3.243.658 3.767.939 5.542-.164.16-.285.984-.332 3.068.678 5.476.811 9.111 1.549 14.163-.555-13.445.516-11.495.021-25.373.219 2.175.379 11.945 1.107 12.545l-.529-.13c.275 4.512.547 9.022.373 14.689l-.297-3.459c.367 7.511-.801 12.487.076 18.413.047-2.093.031-3.792-.049-5.084.235 3.866.183 8.717.094 12.919l.871 8.694c-.262-.077-.277 5.433-.695 2.775-.402 6.26.385 9.21.516 12.828-.561 6.41-.25-5.553-.979-6.181-.244 8.832-.023 18.192.451 23.175.105-1.801.197-2.676.324-2.584-.166.267-.123 3.825-.127 5.81l.342 1.363c-.231 3.304-.434 2.838-.691.028-.066 3.159.592 6.924.098 10.177-.412-5.393-.053-12.265-.31-15.076.338 11.271-1.044 11.342-.608 25.629-.164.176-.483-2.243-.488.509.127 6.377.707 1.666 1.088 3.658-.213-4.909-.004-7.193.428-10.043l.279 1.311c-.145.198-.152 3.281-.293 4.189l.567.793c-.628-.366-1.105 4.566-.87 8.442.455-3.917.431-2.858 1.145-3.925.678 5.451-.664 6.15.053 12.261-.201-.458-.352-5.792-.506-1.183-.027 3.814.461 3.307.617 5.865-.523-2.882-.911-2.142-1.531-5.266-.066-6.778.007-2.734-.221-9.36l-.442 5.608c-.085-5.743-.599-4.177-.798-4.649-.532 9.809.793 7.392.656 13.702.358 3.043.076-5.911.451-1.152-.076 5.901.341 1.346.568 7.97l-.24-1.109c-.311 2.024.072 4.026.125 6.369.158 2.577 1.816-2.917 1.852 7.677-.146-.519-.238-.71-.299-.71l-4.391-10.334c.01 10.733-.111 23.104-.406 35.534-.857 2.928-.707-8.872-1.094-8.111l.176-5.67c.363.317.111 11.879.755 6.758-.261-10.012.157-14.555-.593-24.052-.861 2.95.152 12.509-.513 18.688.056-2.595-.038-4.784-.161-6.911l-.361 18.612.207 1.482c.098-4.448.17-7.526.201-7.923-.074 5.898.401 10.874 1.031 11.266l.021-1.048.197 2.131c-.043 1.385-.083 2.769-.123 4.145zM156.18 279.437c.328.156.599.262.82.311-.229-.05-.066.137-.82-.311zm234.086-45.643l-.338 23.36c1.242-13.644 2.184-23.236 2.16-.466l.09 1.491c.151-2.977.17-8.109.08-12.937-.22-1.954-.735-6.082-1.213-9.705l-.647-4.72c-.18-1.223-.308-1.985-.343-1.951-.348 1.384.031 3.401-.074 5.917l.285-.989zm2.084-5.594c.139-4.459-.137-3.444-.385-4.136l.094 4.685c.062-.592.15-.884.291-.549zm-.633-3.869c-.006.501-.018.928-.051 1.152l.051-1.152zm-.315 86.724l-.015-.457-.059 3.21c.04-.427.071-1.241.074-2.753zm.608-9.049l-.455-1.058-.052 3.009c.206-.339.385-.693.507-1.951zm1.493-29.089c-.546-1.834-.569-7.977-1.199-8.354-.161-.392-.224.9-.274 2.351l-.053 5.177c.092.063.177.427.259 1.035.079-1.809.235-3.017.622-2.284-.844 4.649.6 4.166.383 9.192.444 1.6.44-5.594.262-7.117zM243.256 171.656c-.148.037-.631.204-1.295.458l2.715-2.294c5.242-3.526 9.898-5.701 14.098-9.61 2.287-1.373 3.689-1.855 4.998-2.362-1.079.73-2.094 1.405-2.954 1.946-12.373 10.111-7.485 3.805-17.562 11.862zm59.998-40.919c-.51.407-.642.625-.642.625 10.871-9.072 20.177-16.038 26.422-20.383-1.47.476-7.253 4.116-10.011 5.828l2.047-2.081 1.702-.697 3.803-3.259c-1.342.516-4.592 2.895-6.946 4.225-.134.216-6.828 5.677-8.612 7.327l5.836-3.671c-1.604.952-9.001 6.312-11.886 8.507.093.255 5.428-3.011 5.743-3.928.83-.111-5.05 4.037-1.09 1.756-4.17 3.444-11.383 8.104-14.748 10.239l-.926-.145c-3.717 2.308-1.96 2.342-6.419 5.022 5.142-3.778-1.293.037 2.827-2.926-1.467.732-.425-.544-4.553 2.424-2.963 3.144-4.692 2.645-7.524 5.572-2.341 1.319 2.052-2.082-2.314.854-4.671 3.845-4.199 3.911-4.143 4.64 4.714-3.105 4.711-4.319 8.571-6.852l-6.883 6.166c1.471-.85 2.503-1.558 3.337-2.198-1.472 1.113-2.661 2.146-3.631 3.098a829.25 829.25 0 0 1-1.548 1.481c4.256-2.991 8.04-5.64 8.862-5.891l-.411.663c1.667-.832 3.994-2.74 4.997-3.72 3.788-2.709 7.346-5.736 8.405-6l-1.284 1.246c4.633-3.371 5.133-3.77 11.019-7.922zm86.809 16.156c1.116-3.47 2.104-7.295 1.908-23.488l.076 1.274c.701-8.16-.926-15.911-.148-25.838.422 4.818.383 4.559 1.346 9.877l-.315-5.168c.608 1.432.294-3.724.322-7.517l.724 3.348c-.209 2.276-.283 8.178-.119 8.005-.08-1.292-.912 7.791-.702 12.726.489-.509.292-10.927 1.092-6.275-.335-4.1.153-4.609-.019-8.895.336 4.111.668 1.018 1.024 4.078l-.167-7.028c.164-.184.363 10.235.965 4.477-.256-2.816.066-10.335-.461-10.47l.162-.173c.113-5.268-.747-2.317-.446-8.786-.265-.076-.448 1.157-.394 3.475.117 1.958.48 2.259.554 6.293-.413 1.809.052-4.866-.646-2.065-.347 1.391.3 10.65-.483 7.7l.113-5.258c-.529-.135-.498-3.943-.924-3.836-.195-3.215.4-6.25-.06-9.533-.085-.328-.189-.462-.292-.531-.104-.062-.206-.06-.289-.206-.167-.305-.257-1.125-.119-4.305.428-2.868.576-8.979.604-14.724a527.94 527.94 0 0 0-9.729 6.96l-3.954 3.198c.232.035 2.073-1.276 3.576-2.333 1.508-1.061 2.634-1.838 1.371-.691l-5.846 4.274.359-.502a39.77 39.77 0 0 0-1.447 1.032l-1.253.974-2.367 1.918c.704-.729 2.021-1.726 3.027-2.531l.683-.561c.209-.177.419-.36.556-.498.281-.283.354-.448.062-.41-.793.525-1.258.812-1.693 1.079-.436.265-.8.486-1.156.704-.713.439-1.385.883-2.483 1.721.47-.379.863-.722.757-.741-5.104 3.305-4.442 3.883-5.585 4.906-4.583 4.104 5.416-3.004 5.104-2.091L358.944 90.98c1.143-1.023 2.294-2.052 1.694-1.906-3.723 2.313-.327-.292-5.334 3.268.791.363-6.053 4.838-9.35 7.693-1.835.916-2.212 1.105 1.407-1.456-.697-.106-5.454 3.476-7.21 4.658-.933.805-2.601 2.067-3.621 2.92 1.591-.824 1.147-.138-1.874 2.246l-.124.213c5.228-3.52 13.54-8.724 16.48-11.408l-.772.841c6.204-3.855 12.468-9.857 15.747-11.041-.043.478 1.246-.775 1.446-.271l4.151-3.43-.774.838 7.398-5.358-.142.22 1.195-1.056.965-.884 1.87-1.697 3.522-3.134c.082-.339-.147-.264 1.112-1.359 1.252-1.022 2.208-1.717 3.006-2.242.007-.006.007-.006.008-.01l-.002.005a20.958 20.958 0 0 1 1.802-1.066c-.124 1.463-.282 2.932-.365 4.689-.01-1.31-.019-2.62-.019-3.948l-3.428 2.461c-.767 1.019-.313 1.195 2.216-.252-1.178.847-1.852 1.695-.555.836.038-.046.157-.151.346-.307.101.763.247 3.43.51 1.621.035 1.655-.002 3.706-.066 5.89l-.229 7.286c-.146 5.805-.216 12.133.155 18.258-.447-8.801-.523 7.054-.684-2.717-.625 6.82.615 5.868.518 12.82-.225.592.029-3.785-.414-5.382-.25 11.558 1.01 19.502.82 30.684l-.488.478c.061 2.117.129 4.468.202 6.912zm.607 22.119c.055 2.152.11 4.334.168 6.553l.014-.644.393 6.466c.19-3.973.727-6.591.976-1.03-.202-.468-.448 1.157-.566-.776-.292 3.727-.575 11.902.161 9.77-.696-7.16.938-1.668.421-7.295.479 3.019.264 6.01.478 8.862-.4-2.968-.909.692-1.101 5.151.118 1.941.005 7.193.2 10.418.449-1.149.707 1.659.82-3.597a64.141 64.141 0 0 1-.02 8.254c-.076-1.325-.133-3.643-.295-3.482-.414 2.157-.396 4.683-.573 6.077l.072 3.325c.04-.326.091-.608.155-.809l.396 3.693c-.211-4.919.209-2.274.473-2.21-.527-.132-.068 3.167-.051 4.851l.557-3.658c.279 1.768-.402 6.242.148 5.319.221-7.761.127-10.744-.039-17.762l-.434 2.849c-.306-7.918.742-4.884.722-13.769-.396-3.693-.027-13.362-.819-13.545.242 1.114.705-5.532.346-8.577-.723-3.365-.82-13.542-1.15-10.459-.01 2.75.389 6.451-.082 8.661l-.151-5.334-.394 3.5c.14-1.809-.245-1.633-.825-.802zm-4.439 119.398l-.011.206.003-.229.008.023z"/><path d="M179.657 218.475c-1.15 1.03-4.268 3.191-3.437 3.08-.32-.296 5.502-3.957 3.437-3.08zM175.71 220.746c-.16.237.085.263-1.297 1.256l3.768-2.788-2.471 1.532zM170.146 221.104c-1.792 1.652-2.94 2.68-6.058 4.841-1.763-.029 4.908-3.814 5.755-5.597-5.739 3.924-6.96 5.896-11.584 9.261 2.566-1.277 12.171-7.739 11.887-8.505zM171.914 218.252l-3.026 2.418.347-.17 3.028-2.42zM245.564 177.405c.472.065 2.257-1.584 3.268-2.392-.871.588-2.122 1.365-3.268 2.392zM231.116 324.002l-24.288-16.729 24.288 16.729zM324.339 119.304c-6.297 4.811-8.85 7.295-15.363 12.059 9.05-5.576 10.866-8.906 18.534-13.489l-3.171 1.43zM323.548 123.031c-1.425.256 4.582-4.105 3.384-3.81-4.276 3.196-1.696 1.908-5.686 4.655l2.302-.845zM288.39 135.431l1.779-1.643-1.513 1.208zM352.737 101.8l-.635.618 3.356-2.129zM351.467 103.036l.635-.619-.635.619zM290.156 132.581l-2.993 1.949-1.28 1.246zM317.795 117.122l-2.497 1.999c.496-.396 4.212-2.705 2.497-1.999zM372.709 88.047l3.039-2.43-.359.179-3.029 2.422zM337.251 101.35c-2.074.886 5.133-3.772 1.184-1.499-3.258 2.385-1.778 1.642-1.184 1.499zM377.4 76.964c.433-.305.854-.622 1.305-1.003l-1.305 1.003zM377.4 76.964c-1.383.975-2.869 1.802-3.739 2.581 1.846-1.041 2.428-1.549 3.739-2.581zM392.117 69.135l.033-1.71c.232 1.301.197.538.012-.642a76.594 76.594 0 00-.01-.393c-1.123.837-1.183 1.038-1.412 1.311-.324.301-.646.601-.997.925l1.271-1.103.869-.612c.006 1.974.05 3.022.234 2.224zM384.192 142.129c.175-5.665.26-7.13.625-6.822.115-5.377-.513-4.542-.658-7.786.07 6.084-.098 7.328.033 14.608zM384.158 127.521l-.029-2.124c-.012.885.004 1.542.029 2.124zM372.364 75.495l2.555-2.484-1.012.808zM384.008 150.536c.022-1.051.006-2.734.131-3.561-.365-.303-.154 4.609-.131 3.561zM391.166 128.689c.223-.575.09-4.2.176-5.675-.047 2.116-.721 3.841-.176 5.675zM385.514 166.787c.023-1.05.269-2.666.57-1.966-.178-1.526-.822-3.592-.57 1.966zM391.1 139.041l.125-.809-.235-3.876zM396.492 125.214c-.436-4.36-1.051 6.916-1.42-.593-.457 9.686.617-.743.546 6.402.148-4.183.699-6.234.874-5.809zM395.618 131.024a59.312 59.312 0 00-.038 1.981l.038-1.981zM392.862 192.384a24.923 24.923 0 00-.148-1.465c.036.498.081.973.148 1.465zM395.979 153.843l-.654-6.535c.436 4.365.408 15.346 1.06 14.662.132-3.556-.04-7.834-.321-9.592l-.085 1.465zM384.168 228.849l-.258-2.824-.076 3.525c.098-1.009.576.817.334-.701z"/><path d="M383.821 230.232l.014-.682a4.95 4.95 0 00-.014.682zM392.545 180.024c.047-2.111.029-3.8-.088-5.726-.123.799-.237 6.059.088 5.726zM385.115 248.73l-.112-4.66.048 5.085zM384.008 270.475l-.123.804.233 3.863.122-.816zM396.824 242.035c.068-3.159-.516-5.626-.64-4.8l.026 6.125c.512-1.557-.016-1.699.113-5.25l.501 3.925zM384.965 429.219a.839.839 0 01-.162-.403 1.492 1.492 0 01-.017-.244l.019-1.29c.048-1.89.178-3.652.341-3.828.142.901.276 4.533.483 2.252l-.84-5.302c.262-3.525.537-2.186.785.472.123 1.328.24 2.985.345 4.528l.146 2.173.064.919c.021.159.04.203.06.295l.008-.231.005-.604-.001-1.188-.036-2.127a143.726 143.726 0 00-.157-3.7c-.124-2.385-.261-4.828-.26-8.648a37.447 37.447 0 01-.465 4.869c-.59.259-.328-6.86-.375-11.95-.258 3.24-.474 1.365-.705-.995a6.445 6.445 0 00-.092-.907l-.084-.802.002.61c-.066-.043-.146.092-.256.532.172 4.271-.322 7.536-.33 10.286.961-2.717.223 9.363.518 12.819l.048 1.806.048.186.002.139c-.105-.012-.238-.158-.428-.29.189.115.123.472.432.779.002.217.004.434.004.646l-.578-.396a1.147 1.147 0 01-.114-.272.329.329 0 00-.021.18l-46.76-32.871c2.497 1.853 4.569 3.58 7.128 5.513-4.3-2.248 4.229 3.121 2.728 2.802-1.894-1.066-4.44-2.945-5.896-4.151-.749-.155 1.291 1.613.827 1.732 6.275 4.89 8.109 4.397 14.332 9.054-.462.121-2.609-1.001 1.576 1.888l-1.102-.681c6.891 4.356 4.71 4.329 9.477 6.463l-.414.354c3.248 1.802 9.124 5.938 12.476 8.212l-.256-.057 3.014 1.904 1.121.719.248.16.085.047.139.075c.347.19.545.323.759.481.402.298.951.753 2.387 1.609 0 0-.216.036-.531.002a5.796 5.796 0 01-.711-.124c.628.583 1.019.767 1.263.805.253.044.38-.043.689.146a1.802 1.802 0 01.002-.255c.074.197.301.475.454 1.135-.049.034-.173.004-.408-.131.146.061.29.122.469.248-.29-2.325-.58-4.162-.87-5.51-.199-.547-.296-.457-.371-.309-.079.157-.133.415-.244.426zM385.748 412.292c.029-.819.041-1.75.02-2.849l-.02 2.849zM332.973 394.115l3.62 2.545a82.23 82.23 0 00-3.62-2.545zM384.598 390.106c-.273 2.684-.382-2.009-.584-2.478l.01 9.612c.203-.043.43.908.615.715l-.041-7.849zM383.641 400.024c.141.325.268 1.343.387 2.482l-.004-5.266c-.153.034-.291.625-.383 2.784zM394.481 399.007l.018 1.702.157 2.573zM393.588 425.621c.308-2.032.074-5.889-.004-7.179.01 4.444-.107 2.519.004 7.179zM396.888 420.129l.175 4.283.06-.4zM305.035 376.969l-1.731-1.178a48.63 48.63 0 001.731 1.178z"/><path d="M335.371 397.728c-8.012-6.369 5.756 3.453 3.568.985l-4.689-2.998.503.106-5.581-3.852c.937 1.086 1.778 1.706 1.32 1.83-7.317-5.33-2.083-1.998-7.246-6.2l-8.311-5.773.733.382c-.701-.484-1.036-.663-1.31-.783l-28.006-19.455c-5.238-3.336 2.427 2.514-1.624.318 5.879 4.14 14.391 10.612 15.31 10.368-.256-.057-.761-.166.381.744l3.745 1.905-3.131-2.441c3.763 1.92 14.725 9.807 16.508 11.517-6.396-4.256-3.66-1.448-12.18-7.93.286.428 1.7 1.821-.327.517 10.371 7.047 19.364 13.79 30.337 20.76zM232.382 325.592l.119.004c-.205-.102-.281-.124-.119-.004zM235.769 328.089l5.406 2.936-7.82-5.44-.854.012c.761.381 3.638 2.097 4.583 3.003l-1.315-.511zM247.223 334.757c-4.144-2.659-4.266-2.023-2.227-.258-3.851-2.378-1.583-1.891-4.485-3.174-.162.407 4.534 3.41 5.625 4.083l1.087-.651zM276.716 355.918l-1.271-.598 2.748 2.017zM275.445 355.32l-2.728-2.002c.086.283.174.562.553.98l2.175 1.022zM265.558 348.066a223.194 223.194 0 00-3.988-2.925l3.988 2.925zM268.634 350.418l-.05-.13-3.026-2.222 3.076 2.352zM272.717 353.318c-.212-.654-.487-1.38-4.553-4.104l.42 1.073 4.133 3.031zM387.306 447.225l-5.019-3.25.537.456 5.031 3.258zM365.059 431.088a53.88 53.88 0 00-2.044-1.162c.85.543 1.544.948 2.044 1.162zM349.867 423.838c-3.48-2.961 5.448 3.166-1.334-1.839-.385-.743 3.132 1.124 6.265 3.566-.468.116-3.295-2.036-1.515-.327 2.396 1.173 3.051 1.985 2.616 1.008 3.821 2.273 4.449 2.239 7.115 3.68-4.521-2.889-13.395-9.831-19.36-13.173-3.445-1.62-2.105.426-2.667 1.196.334.509 8.217 6.193 8.88 5.889zM355.172 428.739c1.695 1.252 2.243 1.591 3.345 2.271-.097-.467-1.944-1.302-3.345-2.271zM319.741 394.995c-.407-.12-3.619-2.178-3.084-1.515l4.82 3.188c-1.094-.8-1.39-1.21-1.736-1.673zM323.591 398.067l-2.113-1.399c.511.375 1.162.81 2.113 1.399zM319.565 394.768c.059.075.111.144.177.227.081.023.086-.009-.177-.227zM254.235 339.798c.217-.167-1.977-1.521-3.078-2.202.846.623 2.003 1.542 3.078 2.202zM174.427 284.824l-1.739-1.479c.585.564.886.852 1.739 1.479zM141.663 270.479c-.083.003-.246-.059-.454-.156.204.104.358.159.454.156zM141.209 270.323c-1.396-.718-5.122-3.757-6.723-4.479l.237.043-2.738-1.688c2.478 1.709 7.617 5.38 9.224 6.124z"/></g><g fill="#202020"><path d="M404 437.437c.055 2.522-.256 4.724-.395 3.774.377 5.14-.053 5.249.678 5.915.357 3.299-.139 6.817-.434 3.065l.069 1.485.071 1.523.02.425.011.216.005.109.001.027-.006.202-.001.055-.01.442c-.005.088.005.117-.013.254l-.056.391a9.933 9.933 0 01-.147.771l-.202.641c-.125.431-.351.812-.533 1.197a8.06 8.06 0 01-1.441 1.836 7.787 7.787 0 01-1.331 1.006l-.122.076-.056.034-.014.009-.006.004-.159.077-.018.009-.114.058c-.063.03-.096.048-.096.048l.226-.095.189-.093.042-.024.092-.052.205-.118.486-.293c.677-.479 1.546-1.21 2.144-2.161.3-.468.579-.959.758-1.452.093-.249.181-.475.255-.722.069-.276.126-.542.172-.788l.062-.353c.018-.111.014-.132.021-.197l.024-.279.022-.243c.03.099.055.222.072.363.013.163.05.231-.002.64a7.794 7.794 0 01-.193 1.096c-.103.326-.207.683-.362 1.038-.606 1.427-1.89 2.915-3.556 3.79l-.076.043-.038.021-.197.094-.1.042-.198.085-.198.085c-.055.025-.24.088-.354.128-.264.088-.529.169-.793.24l-.673.123a4.881 4.881 0 01-.666.074l-.33.02-.163.008-.04.002-.021.001-.253-.009-.05-.003c-.291-.023-.463-.016-.826-.056a14.923 14.923 0 01-1.34-.256l-.969-.319c-.592-.215-1.061-.461-1.436-.584l.638.388c.409.261 1.009.522 1.82.79.235.062.485.119.744.171l.395.072c.136.023.287.047.328.045l.425.03.22.016.027.002.277.009h.023l.095-.005.189-.009a8.546 8.546 0 001.549-.206c.526-.117 1.393-.435 1.53-.52 2.008-.848 3.489-2.605 4.156-4.063.669-1.337.791-2.96.769-2.762.041-.153.048 1.016.04.991.047-.291.097-.645.12-.93l.005-.509.003-.134.009-.276-.002-.033-.003-.068-.011-.276-.019-.574a78.03 78.03 0 01-.023-2.435c.006-1.63.05-3.165.092-3.959.1.251.262.091.28 1.907.046-12.431-1.061-3.349-1.263-13.663.019.649.009 1.45-.05 2.556zM405.485 426.878l-.762-4.336.197-7.274c-.264-.083-.475-5.382-.707-1.794.042.701.12 2.088.096 3.208-.566-.812-.283-9.674-.857-7.536.15 5.753.025 6.637.486 10.178-.053 5.273-.183 9.114-.391 11.577.087 1.565.436 1.785.504 3.774l-.021-1.351.854-.215c-.18-1.659-.096-3.228-.113-5.067l.997 8.515c.799-2.746.329-11.112.661-14.455-.72 4.146-.357-3.302-.944 4.776zM404.051 434.675zM191.77 199.097c-1.471 1.055-1.792 1.527-1.946 1.761l16.654-11.754c-.651.184-5.61 3.339-2.48.97-1.573.805-5.808 4.048-6.265 4.74l1.011-1.13c-3.587 3.063-6.705 4.208-4.351 2.233l-.321.232-9.663 8.87c3.96-2.671 2.672-2.593 7.361-5.922zM370.165 439.647c-2.204-1.457-2.517-1.578-2.319-1.337.81.494 1.587.953 2.319 1.337zM182.151 207.093l-3.027 2.778c1.251-1.056 2.314-2.037 3.027-2.778zM200.607 184.279c-.009-.027.012-.073-.097-.042l-1.34 1.274.038-.027 1.399-1.205zM118.243 257.455l.407.241a4.698 4.698 0 00-.407-.241zM244.012 150.009l-7.116 5.635c.85-.892-2.683 1.685-1.283.356-.542.429-3.135 2.372-2.342 1.964l1.502-1.078c-3.504 3.324-.983 1.877-7.153 6.876 4.26-2.494 5.805-4.047 7.751-5.808l1.883-1.445 5.597-5.14 1.161-1.36zM264.644 370.156l-.112-.013c.084.037.109.032.112.013zM264.078 370.098l.453.045c-.462-.188-2.049-1.175-.453-.045zM183.114 205.861c-.026.178-.362.608-.963 1.232l2.258-2.074-1.295.842zM187.887 200.628l6.184-4.479 2.092-1.918c-2.309 1.795-5.048 3.841-8.276 6.397z"/><path d="M119.12 254.43c-1.011.595-1.123 1.201-1.239 1.321-.113.143-.258-.095-.27-.447-.028-.36.183-.749.259-.927.082-.169-.083-.26-.691.241-.543.74-.349 1.457-.075 1.885.295.447.692.722 1.139.952-.496-.279-.709-.666-.775-.94-.068-.282-.021-.468.048-.571.144-.206.351-.114.564-.051.213.069.433.107.593-.031.181-.12.265-.481.796-.859.16.304.057.613.168.981.047.174.128.342.238.467.113.121.228.22.312.344.055.455-.09.506-.521.354l-.73-.27c-.259-.109-.494-.254-.729-.284.187.321.432.463.607.551.181.087.309.13.42.152.219.041.392.009.704-.003l.121.099.569.408 1.235.863c.833.562 1.667 1.124 2.493 1.683l4.865 3.192c3.106 2.053 5.828 3.955 7.501 5.712 4.803 3.2 4.68 2.715 7.599 4.333.96-.217-6.794-5.256-8.211-6.957.327.306.962.904.698.844l-3.989-2.998c3.724 2.935-.957.217-3.059-1.194-1.514-1.048-4.523-3.13-3.996-3.004l2.369 1.477c-1.4-1.127-3.094-2.158-4.797-3.221a68.126 68.126 0 0 1-2.525-1.633l-.296-.207a.243.243 0 0 1-.053-.058.22.22 0 0 1-.042-.149c.129-.109.273-.102.347-.174-.251.106-.614.086-.821-.138-.214-.224-.233-.61.041-.938 0 0 .039.192.153.336.108.152.299.261.299.261-.204-.14-.197-.302-.082-.487.029-.046.064-.093.105-.14-.062.035.259-.2.439-.334l.628-.462 2.651-1.896a269.435 269.435 0 0 1 11.028-7.302c-.786.404-2.124 1.242-1.431.583 3.688-2.81 6.834-4.42 5.299-2.873 3.354-3.097 14.388-9.52 18.981-13.71l21.066-19.339a57.428 57.428 0 0 1-2.641 2.104c-2.473.966-3.564 1.829-.216-1.262-3.432 2.829-1.753 2.27-7.185 6.129 1.953-1.767 2.073-2.742-3.188.873-12.679 9.709-20.285 17.276-31.937 26.615-.366-.042-2.92 1.65-5.973 3.751l-4.741 3.291-2.254 1.564-1.029.708-.413.28-.147.092c.014-.05.032-.101.054-.154l.037-.079.17-.171c.24-.236.506-.483.794-.742a48.143 48.143 0 0 1 1.978-1.662c1.465-1.175 3.186-2.465 4.945-3.77l-8.602 5.975s.047.282.135.535c.085.253.21.481.21.481z"/><path d="M147.121 232.69c-.352.194-.703.412-1.063.637.208-.097.528-.284 1.063-.637zM128.478 246.681c.035-.047.01-.048.015-.075-.369.274-.737.549-1.114.831l1.099-.756zM179.421 207.111l1.937-1.755-1.577 1.268c-.512.44-.734.678-.36.487zM182.525 205.976l-.298.456.886-.572c.028-.151-.121-.158-.588.116zM153.182 286.979l1.3.786c-.752-.518-1.098-.71-1.3-.786z"/><path d="M120.251 259.383l-.757-.515-.314-.205-.117-.063a1.812 1.812 0 00-.364-.147c-.198-.053-.32-.029-.469-.026-.151.002-.33-.018-.668-.176-.3-.181-.953-.37-1.377-1.233 0 0 .098.258.262.477.154.228.365.404.365.404a2.389 2.389 0 01-1.104-2.104c.013-.458.167-.933.459-1.328.281-.41.726-.676 1.136-.974l8.073-5.676c-.444.669 3.492-2.028 3.118-1.211 3.646-2.698 7.258-5.367 8.899-7.093 2.384-1.494 5.636-4.287 8.667-6.186-1.39.645 3.624-3.684-3.289 1.595.552-.435.156-.232.701-.663-4.796 2.914-6.259 4.735-10.197 7.52-2.512 1.441 3.604-3.071 1.318-1.593-4.779 3.674-15.636 10.62-14.726 11.22l-1.198.861-.6.41a8.95 8.95 0 01-.794.467c-.446.23-.767.326-1.17.503-.263.365-.559.862-.678 1.49-.125.618-.075 1.364.267 2.018.168.326.4.627.687.872.291.241.611.446.915.678l2.378 1.742c4.498 3.266 8.303 5.996 8.675 5.413-2.101-1.413-5.455-3.813-8.662-5.71l.564-.767zM171.912 212.49l-.883.605.883-.605zM230.952 175.787l-1.36 2.063c-10.581 7.719-14.598 10.239-23.938 16.864-.787.403.304-.461.856-.9-6.521 4.722-16.476 11.505-21.027 15.22-2.098 1.47-7.76 5.108-5.833 3.425-.973.783-2.093 1.667-3.282 2.469-.497-.046 2.569-1.924 2.483-2.188-.941.637-1.34.84-1.495 1.075 1.402-1.33-2.256.242 5.045-4.877 3.26-1.368-5.005 3.634-2.856 3.145 2.421-1.699 1.953-1.766 2.101-1.995 3.092-2.155 3.132-1.927 3.079-1.655 1.031-1.044 5.114-3.479 6.518-4.95 5.954-4.274.036.744 3.944-2.022l1.768-2.282 6.599-4.454c9.248-6.88-2.191-.248 8.299-8.226-1.16 1.358 3.586-1.077 8.699-4.462-2.98 2.138-8.203 6.494-12.219 9.016 5.838-3.302-7.463 5.356-4.194 3.982 2.49-2.194 6.958-5.401 10.576-7.713l-1.104.874c3.781-2.554 6.093-5.268 11.434-8.616 2.542-1.824 2.2-1.291 1.865-.812 2.089-1.631 3.928-3.129 4.042-2.981zm-5.468 4.071l-3.469 2.341c.892-.457 2.164-1.36 3.469-2.341zM405.373 368.35l-.068 1.271c.039-.277.057-.759.068-1.271zM350.193 79.385l1.997-1.373c-.79.521-1.427.964-1.997 1.373zM400.234 46.628l.836.267c.494.189 1.146.457 1.753.819.605.358 1.193.75 1.594 1.088.425.313.658.571.658.571-1.574-1.554-3.244-2.326-4.841-2.745zM405.432 339.448l.006-.118c-.016-.198-.027-.35-.045-.559l.039.677zM406.516 160.44a26.79 26.79 0 00-.188 1.973c.084-.1.145-.837.188-1.973zM399.235 46.386l.32.099c.215.039.454.07.679.143.006-.026-.999-.241-.999-.242zM329.179 91.166l-1.22.963c.589-.435.938-.719 1.22-.963zM333.357 91.162a32.16 32.16 0 00-1.184.938l1.184-.938zM263.89 138.093l-2.597 1.979c1.304-.935 2.059-1.525 2.597-1.979zM325.978 95.683c-.133.141-.267.282-.348.386.354-.282.5-.446.348-.386zM402.848 389.086l-.004-.197-.098-.083.102.28zM404.082 397.021l.07 2.866a45.18 45.18 0 00-.07-2.866zM405.153 207.841c-.123.864-.27 2.892-.41 1.945.177 1.654.606 1.544.41-1.945zM397.543 373.178c.113.52.201 1.166.287 1.815-.123-1.206-.224-2.266-.287-1.815zM397.83 374.994l.191 1.77a39.665 39.665 0 00-.191-1.77zM398.117 185.862c.059-.215.105-.548.121-.999-.115.132-.139.492-.121.999zM404.016 402.204c.202.515.641 12.98.744 2.496.629.404.291 6.727.447 9.521.147-2.03.404 1.01.629.394-.076-1.387-.258-3.034-.213-5.326.287-1.054.482 2.424.375 5.14.332-3.346.499 4.245.754-.49-.223-10.122-.451-17.275-1.369-24.393.15 5.77.338 12.224.086 16.956l-.545-1.989c.479-5.349.121-8.65.172-13.91l-.289 11.816c-.452 5.535-.557 1.832-.654-2.531-.008 1.073-.04 2.043-.137 2.316zM399.242 394.242l-.016.198c.02.173.033.388.056.498l-.04-.696zM270.724 146.745l-.712.753c.64-.564.816-.767.712-.753zM401.877 387.193v.009a.457.457 0 010-.009zM291.392 132.234c-.021.032-.041.066-.083.116.064-.067.056-.08.083-.116zM290.156 118.756c-.054.006-.078-.005-.183.038-.423.336-.194.206.183-.038zM291.378 132.181c.01.014.033.018.014.053.006-.026.031-.066-.014-.053zM390.519 59.885l-.171.049c-.132.05-.384.172-.653.306-.082.089-.066.111.077.047.072-.032.176-.085.315-.164l.237-.135.195-.103zM370.337 73.119l-.397.206.397-.206zM407.602 202.108c.008-1.2-.006-2.099-.029-2.859a50.99 50.99 0 00.029 2.859zM291.309 132.349a13.04 13.04 0 01-.878.852c.49-.441.739-.69.878-.852zM401.16 78.207l-.059-.746-.027.443.086.303z"/><path d="M400.76 90.858c-.061-.432-.125-.63-.182-.873.227 4.515-.02 12.81.56 13.792-.015-1.533.325-9.476.665-8.122-.145-3.147.261-7.8.166-9.495-.316 5.167-.488.559-.684-2.93.168-3.172.465.597.572-2.135l-.064-7.34-.076 6.394-.557-1.942.053.652c.26 10.818-.814.919-.453 11.999zM400.578 89.985a23.867 23.867 0 00-.137-1.733c.01 1.021.067 1.417.137 1.733zM399.66 134.181zM200.651 191.181c.25.025 5.597-3.33 5.258-3.615l-4.694 3.144-.564.471zM402.149 254.577c.012-.702.018-1.406.01-2.11-.023-.151-.048-.296-.066-.41-.063.429.015 1.818.056 2.52zM402.004 97.604c-.066-1.156-.133-1.67-.201-1.948.033.748.089 1.438.201 1.948zM401.131 254.973c-.123.895-.309 2.212-.473 2.399-.004 1.83.221 3.115.301 4.978-.062-2.103-.019-4.535.172-7.377zM400.967 262.501a5.787 5.787 0 00-.008-.151l.008.151z"/><path d="M197.481 193.193l-1.318 1.039.647-.596-3.62 2.391c-.412.324-.86.671-1.42 1.084a2.39 2.39 0 0 0 .455-.452l-1.164.759c-2.568 2.351-9.405 7.564-11.281 9.206-2.572 2.044-5.792 4.443-7.869 5.866 1.912-1.337 4.393-3.194 3.492-2.858-4.02 2.521-6.326 3.246-12.646 8.472l3.914-2.77-8.266 6.987c-3.315 1.854 4.126-3.487 5.152-4.629-6.585 5.213-13.007 8.207-15.711 11.119-.729-.083-1.949-.22-6.419 2.989 3.564-1.83-2.491 2.192.513.805-1.394 1.323-5.119 3.392-5.167 3.873l.304-.461c-8.125 4.78-9.942 7.542-12.999 10.183a420.727 420.727 0 0 1-6.055 4.349l-2.102 1.465c-.622.453-1.283.821-1.817 1.332-1.067 1.027-1.429 2.653-.903 4.057a3.881 3.881 0 0 0 1.413 1.794l2.072 1.442c0 .101.062.287.207.548.078.134.155.271.295.454.147.187.318.391.511.606.773.864 1.911 1.932 3.425 2.978 1.654.624 8.56 5.239 9.579 5.263-5.244-3.983-4.675-2.712-7.972-4.873-2.338-2.375.096-.651-3.361-3.521 2.822 2.271 13.531 9.155 16.446 11.891l-1.188-.741c4.971 3.917 5.15 5.76 14.247 11.13l4.307 2.609c-.231-.093-.292-.055-.426-.087 6.688 4.784 4.481 4.019 12.196 8.832-.596-.372-.272-.067-.876-.446 4.047 3.241 8.682 5.724 11.957 7.868 1.68 1.762-.731.054-2.136-.518 7.337 5.394 15.835 10.389 20.79 13.174l4.638 3.607c-2.958-1.846-6.722-3.888-6.018-3.042 2.692 1.781 2.311 1.238 5.99 3.941-.811-.201-2.539-1.073-4.512-1.998 7.425 5.851 2.342.339 7.208 4.901 2.421 1.714 4.083 2.345 4.559 2.233l4.117 3.485c.756-.037 6.193 3.763 9.788 6.209.549.142-2.575-2.422-4.026-3.224.476-.111 4.355 2.411 6.783 4.131.329 1.425 16 11.101 12.464 10.015 11.104 7.437 26.504 18.166 33.946 22.912 2.223 1.896 7.059 5.32 3.892 3.648 8.789 6.197 13.9 8.574 22.473 14.94.651.608-3.95-2.772-3.827-2.288 5.929 3.7 10.14 7.649 19.14 13.673-1.499-1.035-2.049-1.177-2.314-1.239-.062-.241 3.819 2.28 6.199 3.766 1.237.975-1.781-1.112-1.131-.502 16.822 12.433 30.61 20.525 47.588 32.541-4.849-3.432-7.056-4.196-7.26-4.017l4.75 3.361c2.019 1.027 5.59 3.545 8.715 5.452.297.357 1.675 1.487.104.568 9.021 7.155 15.357 9.377 26.679 17.765l-14.694-8.76 3.188 2.802-6.473-3.835c3.456 2.872 7.116 4.44 7.275 5.152-.854-.433-2.692-1.782-2.903-1.607 3.405 2.633 3.892 2.529 6.589 4.314-7.537-4.092-21.18-13.724-28.668-18.701-1.201-.751 1.128.501 1.392.562-3.018-2.085-4.638-3.606-8.511-6.124-2.586-1.308 1.609 1.513 3.444 2.859-.468.118-1.391-.559-3.494-1.974-.168-.716-11.271-8.153-13.598-10.521-11.156-7.672 1.042 2.28-9.641-5.505l-2.905-2.731c-6.521-4.066-14.854-9.47-21.884-14.568l1.506 1.039c1.134.507-.428-.773-1.086-1.387-5.226-3.975-10.437-6.816-13.364-9.563-6.459-3.825-16.912-10.652-24.083-15.33-1.463-1.931 9.484 5.918 12.659 7.593l-6.368-4.483c3.941 2.765 5.656 3.631 8.257 4.951-5.501-4.044-7.707-4.81-13.104-8.385.527.127-.108-.472-2.545-2.196l-.975-.088c-.022-.064-.271-.285-1.006-.841l-9.584-6.388c1.876 1.578 1.728 1.994 4.156 3.712-.704-.845 1.392.562 3.82 2.283-2.316-1.241 2.218 1.892 2.014 2.071-4.87-3.448-10.902-7.617-14.177-9.762l-.78-1.1c-4.583-3.369-9.638-6.623-12.715-8.952l1.132.505c-5.499-4.043-11.158-7.675-15.857-11.523-5.271-3.085-11.782-7.147-16.158-9.573-2.51-1.057-14.179-10.882-20.259-14.165-.342-.317 4.105 2.356 6.146 3.525-3.68-2.702-7.063-4.202-7.879-5.526 8.255 6.068-.169-.716 3.703 1.8-3.927-2.753-8.124-5.575-10.173-6.752 6.347 4.467-2.741-.896 3.836 3.412-5.274-3.087-12.184-7.704-18-12.046.21-.175-.45-.79-2.598-2.438l-2.004-.943c-2.735-2.013 5.627 3.41.119-.638-6.126-3.515-17.097-12.501-20.312-13.284-4.105-3.478 8.616 5.479 2.351.347 4.093 2.35 9.104 6.492 10.718 6.891-3.864-2.512-1.08-1.387-3.505-3.103l-4.414-2.653.916.673c-7.375-4.498-18.381-12.589-27.436-18.85l-1.47-.893-.718-.433c-.244-.148-.605-.412-.9-.612l-3.713-2.576c-2.445-1.614-3.636-4.486-3.456-7.383a8.602 8.602 0 0 1 1.381-4.119c.188-.323.436-.595.659-.896l.937-.791 1.956-1.629 2.063-1.698.266-.217.188-.141.371-.273.756-.553a197.376 197.376 0 0 1 3.248-2.31c-2.493 2.193 7.791-5.069 2.413-.478 4.412-2.723 8.374-5.971 8.305-6.246-3.774 2.549-1.358.853-4.568 2.956 1.932-1.753 6.818-5.178 8.943-6.419-.942.635-.554.437-.701.663 4.568-2.956 1.946-1.761 5.081-4.133 1.277-.351 7.16-4.898 10.227-6.775l3.885-3.519c-2.095 1.99 4.164-2.746 5.056-2.902 2.879-2.391 5.137-4.618 9.846-7.797-1.792 1.53 4.419-2.727 4.746-2.436 8.188-5.27 12.501-10.23 20.385-15.038-.177.246-1.536 1.547.728.083 1.666-1.319 4.731-3.417 6.56-4.763l-.051.051.089-.078c.896-.659 1.437-1.104 1.399-1.205 2.936-2.578 4.327-4.081 10.374-8.773-.74-.076-5.907 3.796-8.102 5.535l-1.697 1.785c-2.311.728-5.563 4.076-7.143 4.886 3.252-3.347 14.172-10.782 20.344-15.779-4.341 2.227-12.994 8.193-20.442 13.542l3.47-2.087-3.917 2.771 4.096-2.25c-3.768 2.543-6.903 4.915-10.278 7.257 3.926-2.778 5.845-3.307 3.559-1.827-4.657 2.696-4.385 3.472-7.751 5.808 1.89-1.277 4.319-2.979 2.917-1.649-6.941 4.173-8.504 5.742-14.87 9.461 1.213.141-7.457 5.353-7.972 6.532l2.826-1.908-5.627 4.566c-5.835 3.301 4.44-3.955-4.129 1.51-7.706 5.329-7.015 5.888-13 10.182 1.706-1.792 6.243-5.494 11.108-8.905l-3.076 1.882c1.396-1.325 8.149-6.012 11.52-8.351-5.223 4.357 2.691-1.688 5.461-3.11.195-.708-3.321 1.858.665-1.407-3.931 2.78-4.484 3.218-9.592 6.602 10.945-7.452 8.8-8.18 18.471-14.515-4.232 3.24 1.906-.52 2.56-.704 2.017-1.489 6.109-4.508 7.751-5.808l-1.936.539c5.336-4.115 8.069-4.296 14.021-9.339.593-.911-5.666 3.825-4.568 2.956 8.446-6.469 12.202-7.788 20.211-12.811.32-.473-.016-.758 2.478-2.951-.615.928 1.501-.31-1.364 2.071 2.678-1.678 5.563-4.074 7.749-5.807-5.508 3.59 1.862-2.023 2.712-2.918 2.822-1.904-.615.927-2.259 2.229 2.295-1.485 5.292-2.868 6.212-4.257.333.286-5.598 5.315-9.675 8.322l2.831-1.911c-1.797 1.533-2.193 1.736-5.002 3.634 2.902-1.641 2.845-1.155 2.387-.462-.391.2.14-.222-.235-.032-2.293 1.483-3.938 2.784-3.29 2.605-1.677 1.881 3.3-1.888 4.976-2.72l3.339-2.492 10.534-9.669c4.829-3.665 7.309-4.874 11.188-7.269l.738-1.121c4.338-2.995 8.494-5.732 6.09-3.278-.25-.024-.796.408-1.745 1.048-.085.142-.274.333-.524.556-.073.087-.106.145-.164.221l7.6-5.698c-7.425 6.104.122 1.004-.688 2.641l7.751-5.809c-4.956 3.155-.333-.286 1.302-1.583.752.07 6.371-4.494 9.188-6.395l-.146.226c2.668-1.672 7.146-4.885 10.274-7.252-.241-.031 3.409-3.583 5.105-5.368-5.604 3.724-2.454 1.265-3.069 1.327.584-.378 1.611-1.095 1.694-1.23.707-.668-1.175.601-1.424.578-5.714 4.305-11.69 8.595-13.681 10.834 1.973-1.012 2.888-2.397 5.016-3.643-2.632 2.417-6.42 4.975-11.282 8.386l-1.829.786-4.76 3.625c1.915-1.614.44-1.1 5.521-4.78-.878.145-5.035 3.655-8.249 5.761l-1.293 1.577c.444-.684-6.31 4.003-1.773.301l7.512-5.838-2.373 1.217 6.507-4.712-1.388 1.322c10.333-7.742 3.735-1.305 13.984-9.314 2.944-2.882 6.478-5.458 13.078-9.912-4.624 3.438-.216.721-1.768 2.281 4.962-3.16 6.271-4.747 8.614-6.712 1.425-.578 2.459-.958-1.861 2.024-.118.975 5.572-4.081 6.396-3.742 14.203-10.035 9.994-10.01 27.152-20.952l-.448.687c10.335-7.744 16.632-11.738 26.267-18.818l8.138-4.792c-1.652 1.309-5.947 5.039-3.574 3.822-4.191 2-8.006 5.021-12.279 7.521-.295.456 1.432-.582 2.219-.983-2.438 1.709-3.86 2.284-6.996 4.659.247.022 3.865-2.291 1.277-.351l-4.648 2.689c-5.719 4.308-2.22 2.968-9.218 7.629 1.031-1.25 3.283-3.594 5.885-5.553-3.193 2.136 4.036-3.161 1.023-1.351-4.157 3.705-6.63 4.833-12.416 9.395.655-.57.771-.803 2.229-1.877l-8.881 5.93c2.373-1.218-6.974 5.412-5.845 5.29 9.432-6.366 6.508-4.713 17.285-11.924-2.929 2.216-6.474 5.4-7.989 7.099-.105.047-.269.141-.6.362-1.306 1.586.43.543.947 1.344 4.447-3.962 8.003-5.786 13.483-10.125.772-1.183-3.693 1.789-6.452 3.897l4.827-3.824-.851.894 12.859-8.847c-2.401 1.727-3.048 2.552-4.179 3.627 1.658-1.143 3.368-2.179 5.189-3.277-.651-.15-.625-.6.986-1.723 8.277-5.688 13.099-8.537 16.456-10.207l.936-.702c-1.671.553 5.301-4.857 7.544-7.076.178.52 4.413-2.722 6.935-4.169.91-1.382-1.251-.882-4.417.744-5.232 4.363-2.789 2.648-4.959 5.138l-8.603 6.702 1.712-1.797c-4.566 2.957-8.468 6.486-8.504 5.743 2.107-1.997 6.131-4.521 8.219-6.506l-3.072 1.883c4.831-4.159 3.001-1.387 9.032-6.164-2.617 1.191.548-.432 3.031-2.62-2.374 1.217-10.969 7.915-9.605 5.843 3.037-2.625 11.6-6.871 15.4-10.653l-.152.233 1.604-1.109 1.529-1.089a263.543 263.543 0 0 0 4.133-3.015l3.077-1.582 1.343-.708c.416-.114.798-.246 1.197-.323a11.353 11.353 0 0 1 4.53-.09c2.475.739 5.263 2.564 6.918 5.114.408.637.767 1.271 1.038 1.954l.286 2.562.52 4.935-.267-.102.137 1.361c.075.784.23 2.09.203 2.528l.056 2.537c-.121-.604-.181-1.277-.203-2.016-.011-.37-.013-.755-.009-1.157l-.156-2.125-.328-4.784-.202-2.625-.057-.677c-.026-.221-.014-.479-.119-.631-.164-.351-.301-.708-.515-1.058l-.008.521-.049.519c-.563-1.746-1.679-3.205-2.952-4.262-.642-.53-1.34-.952-2.043-1.309a11.424 11.424 0 0 0-2.192-.716 10.027 10.027 0 0 0-4.279.053 7.57 7.57 0 0 0-.983.277l-.479.163c-.16.067-.329.184-.493.273l-1.977 1.139 1.528-.809.817-.42c.272-.105.541-.154.818-.234a9.939 9.939 0 0 1 3.702-.152c1.296.193 2.613.642 3.772 1.333a10.678 10.678 0 0 1 2.943 2.584c.77 1 1.337 2.018 1.652 3.054.12 1.238.242 2.376.367 3.376.249 1.997.511 3.445.791 3.971l.004.931.002.945v.529c.003.197-.025.242-.037.372l-.247 1.754.178 1.678c-.186 1.307-.424 1.293-.631.319-.103-.487-.197-1.214-.273-2.136a45.804 45.804 0 0 1-.099-1.524c-.011-.155-.006-.24-.028-.461l-.066-.676-.131-1.417c.02-1.375.023-2.09.152-1.698l-.382-2.722-.198-1.459-.1-.784c-.049-.256-.026-.581-.156-.785-.366-.914-.91-1.989-1.874-3.062-.482-.534-1.043-1.089-1.755-1.568a9.033 9.033 0 0 0-2.469-1.268s1.062.244 2.006.781c.962.501 1.781 1.202 1.782 1.202-1.989-1.951-4.836-2.881-7.285-2.694-1.249.111-2.299.31-3.395.978l-3.045 1.599-2.238 1.686-.995.765-.464.361-.373.298c-.705.594-1.264 1.103-1.648 1.506l5.873-4.022 3.927-1.952a8.993 8.993 0 0 1 4.025-.373c2.786.337 5.359 2.182 6.619 4.55.327.587.556 1.203.743 1.815.081.713.104 1.473.159 2.204l.285 4.403.144 2.186.017.267v.562l.001.748.005 2.971c1.108 2.834 1.73 6.196 2.762 7.64.189 6.446.332 15.198-.045 20.797l-.203-.515a78.793 78.793 0 0 0 .066 7.349c-.27 2.886-.545-1.975-.691.036l.346 9.233c-.467-.569-.469-8.339-.502-12.028.04.696.117 2.102.18 1.651.192-4.292-.602-12.287.072-14.164-.117-2.091.498 4.248.533-2.831.255-4.741-.352-6.284-.553-6.779-.266-.077-.363 7.439-.682 4.832.033 3.689.375 5.158.119 9.877-.031-3.657-.568-8.623-.157-10.57-.493-7.23-1.733-6.193-1.802-2.785.389-.812.479 13.19.986 3.709.5 4.259.504 12.04.815 17.611l-.101-.253.125 6.917c-.139-.974-.256-3.065-.52-3.134l.709 9.58c-.477-5.393-.33 3.343-.541 5.797.404 1.026.701 4.768.932 1.177.294-4.036-.219-2.35-.25-6.02l.639 5.197-.063.445.521 3.128c-.037 7.079-1.213-3.092-.702 5.979l.711-1.18c-.104 10.501-.905 23.988-.577 31.408-.404-2.047-1.055-2.949-1.439-.135.122-3.2.097-9.629.029-14.219.126-.883.842 5.734.688 10.719 1.164-2.416-.703-12.541.477-13.126.412-12.703-1.137-9.475-.443-20.257-.527-.149-.258-3.065-.723-3.632-.859 3.191.029 14.414-.271 21.41-.037-.685-.117-2.063-.217-2.333-.154 5.002-.037 7.068.158 10.562l.063-.44c.516 6.105-.393 3.777-.625 7.371.078 1.392-.074 6.388.313 5.585l-.5 6.507.588-.313c.035 3.67-.354 4.473.004 7.8l.527.154.183-9.115c.173 4.619.505 1.288.614 6.364-.576-5.67-.291 4.011-.78 4.57l.296 3.733-.14-.955c-.271 2.93.196 3.488.127 6.908.294-4.033.663-6.674.29-11.814.295 3.742.623 11.162.641 12.983.221 3.929-.18 6.672-.24 10.347-.211-7.054-1.596 2.471-1.218-11.665.101.261.078 1.406.017 1.849.672-1.884-.043-8.474-.3-11.539-.388.79-.483-2.416-.698 3.018.248-1.783.864 4.578.547 9.748l-.83-.911-.098 7.527-.039-.704c-.533 2.831.104 8.031-.211 13.214.297 3.742.061 18.098.929 11.921-.519 4.652.142 8.735.253 13.811l.339-6.328c.593 7.48.21 5.326 1.153 11.313-.227.605-.412 1.94-.651.724-.044 10.05-.278 24.404.401 30.299-.037 7.085-1.014 8.196-.63 18.137.116 2.094.774-1.632.536 4.949-.061.443-.613-6.336-.549.993.639 5.22-.352 12.26.201 19.05-.23 3.585-.143 9.806-.648 8.51.115-5.679.01-13.715-.232-14.939.305.784.295-4.039.529.146.383-8.584-.313-5.571-.051-13.272-.203-.531-.559 3.959-.379 5.609-.688.036-.332-15.184-1.159-8.339-.06 8.229 1.378 10.672.651 17.804-.419-2.858-.064-7.329-.787-10.961l-.277 5.86.498 4.253-.102-.253c-.631 10.351.709 9.574 1.055 18.835.479-5.365 1.195 1.241 1.488-2.795.088 6.192-.004 10.74-.693 10.782-.563-11.586-.729-.658-1.416-11.368-.248 1.758-1.01-2.551-1.086 3.832.492 7.192.574-2.151.803 5.021-.063.424-.125.863-.225.613.357 3.299-.13 3.849.266 7.841l-.138-.946c-.419 4.922.474 5.385.019 9.621.512-1.694.42 2.845.738 5.473.193-4.295.928-6.62.888-15.094-.405-1.023-.63-.404-.825-3.885l.049 5.508c-.066-1.188-.17-2.094-.252-3.183l.211-5.291c.289 6.708.721 3.632 1.143 6.482-.178 6.138.111 5.064-.021 8.925-.594-.388-1.014 11.836-1.396 18.904.009-1.099.019-2.515.023-3.28-.375-5.134-.494 3.533-.658 3.723l.297 3.742c-.041-.705-.18-1.679-.264-.083.111 5.065.699 4.771.811 9.827-.326.38-.822-3.896-.994-.751-.285 1.084-1.045 4.537-.756 11.256.125.476.195 2.218.25 4.237-.018-.281-.031-.633-.055-.76l-.355 4.463c-.559-3.803.263-7.69-.297-11.512l-.531-.324c-.002-2.975-.23-7.014-.506-8.87-.09 4.534.05 5.488.16 10.559-.336.71-.584-2.861-.621-3.375l.303.756c.439-6.047-.508-9.04-.41-16.567.021-1.137.061-.443.162-.19-.514-6.094.189-12.072-.488-17.996l.279 1.932-1.252-19.798-.206-.063c-.124.875-.116-2.083-.032-3.67l.002.008-.658-10.854a35.539 35.539 0 0 0-.264 3.723c.242 1.235.045 8.477.594 7.483-.332 3.346.145 8.735-.064 11.192.354-4.477.52 3.117.824 3.901-.348 1.505.025 6.633-.441 6.047-.121.883.311-2.198.03-4.103-.436-4.688-.384 8.584-.798 2.743.328 7.429.186 17.218.617 24.88l.19-4.289c-.068 3.406.036 11.467-.19 12.069-.055-2.531-.049-5.488-.143-8.727-.527-.157.004 7.78-.322 8.141l.873 9.404.029-4.119c.32 2.595-.066 11.206-.141 17.589-.721-3.662-.018-9.629-.308-16.345-.274-4.878-.696 3.013-.87-1.604-.168 1.197-.148 4.21.033 5.695l-.131 1.821c-.656-4.119-.51-13.352-1.074-19.498.07.539.145 1.01.221 1.18.255-4.731.244-9.538.07-14.152-.207 2.44-.066 3.406.01 4.801-.162.174-.232-4.182-.412-5.829-.191 4.292-.387.8-.494 3.516-.156-2.795-.111-5.06-.043-8.466.248-1.766.342 1.461.666 1.101-.195-3.508.582-5.111.207-10.245-.137 6.828-.707-1.8-.925-4.152l-.022 1.145c-.381-2.165-.396-4.003-.049-5.499.156 2.795.049 5.499.436 4.704-.016-1.846-.033-3.687-.149-5.777l.28 1.901-.082-9.176c-.342-1.453-.824-3.88-1.328-5.15.311-2.201.053-5.266-.066-7.354l.143.972c.291-4.047.047-13.052-.256-13.812.271-2.892 1.926 20.439 1.645 0-.002-7.77-.965-4.84-1.299-9.274 0 0 .1.25.162-.19.07-3.4-.297-3.741-.451-6.536-.146 2.038-.154 4.993-.014 5.945-.404-1.023.035-7.082-.283-9.688.623 3.382.238-6.572.557-3.948.4-6.763-.092-13.992-.551-17.545.781-4.589-.104-8.047.258-15.495-.023 1.145.094 3.222.01 4.823.496 4.245.26-7.717.713-1.183-.078-1.397-.264-.099-.186 1.334.057 2.507.273 4.867.5 4.237l.438-6.07.119 2.119.607-9.211c-.1-.25-.225.613-.285 1.056.266-10.683-.072-22.899.01-32.258-1.398-1.758-.6-23.042-1.457-30.605.4 2.028 1.107 3.137 1.398 1.882.059 1.687.623 5.139.506 8.963-.225.611-.479 5.335-.734 2.294.158 10.57.612-1.431 1.133 1.689-.137-11.712-.955-18.582-1.283-25.975l.164-.187-.313-5.583c-.092 4.562-.885 4.336-.607-1.543l.039.715c.333-3.354-.059-10.331-.006-15.569l-.459-3.552c.053-5.247.904-5.472 1.416-7.178.06-8.224-.64-12.972-1.055-18.813.371-2.641.459-14.958.91-8.433-.327-7.417-2.32-5.921-1.216-18.643l.358 3.301c-.037-6.082-.234-13.459-.375-20.017-.07-3.279-.126-6.353-.142-8.957l.013-3.521.015-.704.021-.269c.016-.172.034-.332.059-.476.322.38.564.248.768-.435.102-.336.193-.8.28-1.363.081-.557.214-1.238.035-1.918a3.186 3.186 0 0 0-1.145-1.738 3.198 3.198 0 0 0-1.848-.629c-.611-.006-1.107.197-1.499.335-.4.13-.727.191-.913.129.138.024-.086.276-.441.605-.323.302-.762.671-1.137.993l-.517.449a5.245 5.245 0 0 0-.45.405c-.904.456-2.35 1.298-3.646 2.531 2.012-1.262 1.52-.514 1.414-.155-.054.179-.01.261.493-.054.251-.158.616-.415 1.142-.809l.913-.698.558-.435.147-.116.082-.071.174-.15c-.106.208-.614.694-1.055 1.128l-1.423 1.358a83.69 83.69 0 0 1-3.395 2.985c-2.548 2.128-5.719 4.557-9.841 7.434l-.18-.518 6.594-4.451c-.88.145 2.483-2.189 3.752-3.302-12.267 8.28.872-2.125-11.453 6.645-.997 1.121-.305.46-3.441 2.835 1.502-1.08 1.564-1.568-.875.143l-2.097 1.992c-4.824 2.324 6.817-5.504 2.778-3.413 4.536-3.703 12.679-9.71 10.75-9.175-7.938 5.294-6.289 5.973-14.618 11.468l-1.033.377c-2.755 2.18-2.951 2.886-4.359 4.221-.235-.034-1.034.38-2.903 1.64-4.452 3.966-7.589 6.339-11.63 10.09 11.568-8.83 10.46-6.74 22.446-15.79-1.797 1.534-10.344 7.751-10.455 8.721l-.189-.513c-3.832 3.036-7.663 6.067-12.774 9.456l2.889-2.398c-6.431 4.98-11.502 7.125-16.237 11.535 1.878-1.266 3.372-2.337 4.468-3.208-3.283 2.601-7.603 5.579-11.369 8.124l-7.186 6.129c-.083-.262-4.964 3.158-2.854 1.16-5.766 3.572-7.922 6.053-11.045 8.413-5.99 3.535 4.766-3.664 4.901-4.65-7.949 5.302-16.099 11.314-20.23 14.807 1.653-1.035 2.479-1.506 2.472-1.344-.332.031-3.453 2.283-5.21 3.515l-1.009 1.13c-3.055 1.869-2.76 1.414-.423-.549-2.832 1.914-5.781 4.798-8.942 6.421 4.53-3.697 10.815-7.684 13.152-9.646-9.771 7.298-10.63 6.213-23.013 15.47-.25-.025 1.706-1.792-.73-.082-5.565 4.076-1.066 1.615-2.608 3.167 4.219-3.232 6.358-4.485 9.127-5.906l-.998 1.043c-.259.005-2.989 1.919-3.873 2.371l-.375.958c-.037-.741-4.674 1.941-7.966 4.548 3.726-2.068 2.776-1.429 4.13-1.509-4.43 3.95-5.821 3.288-10.81 7.681.289-.45 4.918-3.896.754-1.15-3.389 2.354-2.658 2.437-4.831 4.159 2.247-2.223 1.369-2.079 3.773-4.532 5.956-4.277 2.422-1.698 8.149-6.013l-5.214 3.133c5.029-3.648 3.349-3.091 3.651-3.549-8.979 5.676-6.078 5.254-11.737 9.073-2.483 2.188 5.271-3.621 1.278-.35-5.262 3.614-.993 1.118-6.719 5.43l.842-.887c-1.969 1.007-3.519 2.567-5.56 4.07-2.188 1.735 3.626-.333-5.721 6.296.375-.442.49-.637.455-.687l6.609-10.028a1726.427 1726.427 0 0 1-31.653 21.807c-3.083 1.123 7.437-6.106 6.542-5.948l5.114-3.389c-.071.496-10.438 7.492-5.541 4.828 8.702-6.451 12.959-8.939 20.925-15.47-3.104 1.135-10.973 7.918-16.819 11.224 2.327-1.571 4.208-3.013 6.018-4.438l-16.664 11.3-1.191 1.094c3.989-2.692 6.752-4.55 7.122-4.771-5.259 3.613-9.384 7.102-9.368 7.86l.939-.634-1.771 1.488c-1.249.825-2.496 1.654-3.736 2.479zm161.493 239.582c-.353-.174-.643-.292-.877-.351.243.06.064-.139.877.351zm-60.566-313.277l-20.851 14.276c12.78-7.484 21.804-12.69 1.656 1.476l-1.267 1.002c2.719-1.73 7.269-4.912 11.485-7.993a753.736 753.736 0 0 0 7.882-7.038l3.801-3.47c.979-.908 1.578-1.488 1.527-1.496-1.424.578-2.988 2.145-5.273 3.625l1.04-.382zm6.146-1.782c4.022-2.665 2.967-2.257 3.436-2.891l-4.089 2.996c.56-.318.869-.429.653-.105zm3.057-2.927c-.446.307-.831.564-1.048.676l1.048-.676zm-76.864 53.772l.396-.298-2.871 1.953c.401-.234 1.138-.716 2.475-1.655zm8.353-5.142l.674-1.03-2.69 1.832c.417-.043.832-.117 2.016-.802zm26.58-16.901c1.308-1.588 6.726-5.435 6.695-6.184.254-.376-.925.378-2.236 1.239l-4.607 3.182c-.003.115-.275.411-.766.857 1.645-1.063 2.803-1.688 2.378-.915-4.597 2.208-3.339 3.085-7.907 6.041-1.16 1.359 5.199-3.125 6.443-4.22zm135.457 160.556c-.055.154-.197.685-.372 1.431l-.312-3.83c.137-6.831 1.041-12.304.264-18.452.195-2.878.609-4.419.949-5.891a134.972 134.972 0 0 1-.111 3.824c1.139 17.239-1.2 8.988-.418 22.918zm1.107-78.543c.039.705.143.958.143.958-1.154-15.264-1.49-27.832-1.445-36.061-.457 1.596-.813 8.977-1.002 12.482l-.521-3.106.41-1.939-.474-5.393c-.351 1.508-.278 5.863-.548 8.774.1.253.709 9.574 1.029 12.18l.361-7.448c-.146 2.011-.025 11.891.107 15.809.262.077.665-6.675.098-7.525.387-.803.391 6.98.807 2.058.414 5.833.068 15.113-.123 19.418l-.652.729c-.254 4.724.785 3.191.408 8.804-.127-6.9-.715 1.167-.764-4.322-.246 1.752-.689.036-.641 5.535.863 4.578-.541 5.797.221 10.125-.27 2.892-.52-3.112-.635 2.578.453 6.525.779 6.148 1.407 6.553.177-6.102-.817-6.855-.664-11.847l1.075 9.927c.152-1.83.168-3.184.125-4.319.063 1.994.223 3.689.441 5.14l.32 2.291c.006-5.626.021-10.622.288-11.506l.305.776c.28-1.992.061-5.238-.163-6.735-.033-5.038-.457-10.069-.063-11.17l.279 1.912c-.086-6.196-.125-6.887-.129-14.678zM375.128 65.193c1.579-.532 3.203-1.123 5.65-2.423 1.225-.65 2.654-1.477 4.388-2.563a169.765 169.765 0 0 0 6.062-4.009l2.47-1.716c.896-.593 2.078-.947 3.304-.771 0-.048-1.323.034-1.317.094 1.998-.069 3.988 1.208 4.768 3.034.422.915.396 1.922.445 2.917l.159 3.092.155 3.38c.045 1.17.081 2.362.097 3.579a89.196 89.196 0 0 1-.206 7.656c-.422-5.211-.383-4.93-1.346-10.683l.315 5.59c-.608-1.549-.294 4.028-.322 8.13l-.724-3.621c.209-2.462.283-8.845.119-8.658.02.35.087-.002.173-.811l.14-1.523.147-1.95c.096-1.135.183-2.494.232-3.842.022-.671.065-1.348-.107-1.954a3.546 3.546 0 0 0-.856-1.488c-.03.218.326.801.519 1.631.227.831.052 1.872.025 2.736-.111 1.776-.262 2.794-.662 1.208.084.709.116 1.301.12 1.808l-.012.98-.037.964c-.059 1.271-.139 2.568-.053 4.886-.336-4.446-.668-1.101-1.024-4.41l.167 7.602c-.164.198-.363-11.071-.965-4.842.256 3.046-.066 11.179.461 11.324l-.162.187c-.113 5.698.747 2.507.446 9.503.265.083.448-1.251.394-3.758-.117-2.119-.48-2.443-.554-6.807.413-1.957-.052 5.263.646 2.234.347-1.505-.3-11.52.483-8.328l-.113 5.687c.529.146.498 4.264.924 4.149.195 3.478-.4 6.76.06 10.312.341 1.475.976-1.101.7 4.776-.781 4.592-.629 18.123-.518 23.19l.336 4.435c.324-.377-.043-8.474.377-5.626l.127 6.917-.203-.534c-.045 2.292.174 4.636.289 6.727-.38-2.154-.227-7.14-.777-6.149-.107 3.247-.313 3.742-.207 6.729-.039-.652-.092-1.213-.17-1.13-.238 6.573.615 6.347.795 7.995.715 6.608.664-6.661 1.23-5.816l.303 19.295c-.18-1.648-.357-3.307-.582-2.686-.254 4.732-.428.107-.4 6.752.752-.474.469 8.366.902 13.06-.308 2.193-.369 2.644-.379-2.151-.488.55-.301 6.988-.344 9.277.121 1.326.191 3.587.301 5.021.242-1.92.549-1.101.756 3.057l.104.242c.133-6.814.666-17.407.166-21.68l.242 1.208c.422-7.888-.877-17.166.045-20.803.365.336.084-1.584.611-1.447l-.412-5.808.24 1.208-.119-9.88.098.261c-.491-4.695-.877-8.374-1.186-11.313-.229-.011-.301.294-.47-1.271a36.74 36.74 0 0 1-.101-3.824c-.002-.008-.002-.008-.004-.008h.004c.066-2.424.396-4.039.531-7.024l.057 9.187c.391.749.797-.033 1.07-4.534.014 1.841.318 2.611.363.333-.102-.25-.249-6.02-.561-3.821-.143-8.727.883-22.855.141-36.105.447 9.52.523-7.629.684 2.938.313-3.688.159-5.275-.061-6.879-.229-1.653-.459-3.005-.572-7.534.093-.416.123.787.191 2.337.095 1.672.108 3.131.338 4.031l.024-1.59.006-.78-.026-.908-.154-3.62-.089-1.74-.047-.853-.024-.422-.085-.379a6.281 6.281 0 0 0-1.402-2.748c-1.368-1.582-3.538-2.391-5.557-2.117-2.055.194-3.624 1.745-5.372 2.832l-4.476 3.338a165.342 165.342 0 0 1-4.445 3.14l-.703-.1a5393.25 5393.25 0 0 0-5.994 4.468zM355.92 79.469l-5.697 4.219.578-.389-5.491 4.349c3.622-2.32 6.245-3.513 1.473.155.297-.457-1.282.354.359-.946-3.463 2.082-10.854 6.944-8.546 6.218 5.93-5.029 2.016-.273 6.692-4.2-2.393 2.273-5.162 3.96-7.56 5.912 2.393-2.177-1.136-.313-5.189 2.309-1.647 1.306-6.356 4.486-9.097 6.654 1.276-.348-1.059 1.612 3.653-1.569a75.485 75.485 0 0 1-7.31 5.126c1.127-.889 3.145-2.378 2.908-2.411-2.146 1.005-4.368 2.594-5.702 3.317l-2.898 2.13c.311-.171.59-.305.805-.377l-3.037 2.626c4.228-3.238 2.131-1.247 2.227-.992-.187-.514-2.84 1.917-4.318 2.98l3.555-1.824c-1.402 1.33-5.751 3.56-4.616 3.436 6.988-4.654 9.572-6.591 15.682-11.099l-2.769 1.421c6.825-5.183 4.746-2.436 12.59-7.988 3.038-2.624 11.799-8.347 11.505-9.108-.847.892 5.297-2.871 7.783-5.061 2.559-2.688 11.501-9.108 8.585-7.458-2.437 1.706-5.48 4.336-7.706 5.329l4.63-3.446-3.322 1.858c1.679-1.008 1.303-1.214.233-1.171zm-108.128 70.756l-.188.12.204-.141-.016.021z"/><path d="M402.778 392.475c.18 1.659.15 5.762.539 4.958-.428.1-.067-7.329-.539-4.958zM402.362 397.382c.102.288.264.088.279 1.929l-.108-5.068-.171 3.139zM399.449 402.523c.317 2.614.496 4.271.468 8.372-1.04 1.541-.29-6.716-1.261-8.575-.098 7.519.811 9.827.898 16.012.435-3.065.685-15.583-.105-15.809zM398.135 399.183l.234 4.182.062-.412-.234-4.185zM407.166 308.614c.324-.377.005-2.981-.074-4.38-.02 1.137-.105 2.727.074 4.38zM278.238 384.123l26.256 18.117-26.256-18.117zM405.043 202.765c.306 8.565.865 12.37 1.008 21.097.654-11.476-1.021-15.157-.352-24.792l-.656 3.695zM407.634 205.786c-.612 1.42-.717-6.608-1.165-5.365.148 5.772.582 2.688.529 7.926l.636-2.561zM397.52 244.598l-.319-2.597.118 2.091zM407.09 166.751l.139.947.193-4.295zM407.369 168.644l-.141-.946.141.946zM396.207 241.261l-.131 3.86.282 1.909zM399.49 207.192l.195 3.453c-.036-.685.216-5.409-.195-3.453zM407.351 140.523l-.236-4.201-.06.429.234 4.188zM397.803 180.163c-.47 2.385-.127-6.889-.543-1.981.073 4.367.318 2.595.543 1.981zM400.992 129.471c0-.567-.016-1.164-.068-1.739l.068 1.739zM400.992 129.471c0 1.83-.18 3.659-.043 4.914.213-2.281.133-3.111.043-4.914zM400.883 108.51l-.033 1.659c-.232-1.695-.197-.892-.012.622.017 1.758.166 1.659.268 1.868l.182 1.082-.17-1.442c.003-2.725-.019-4.387-.235-3.789zM375.959 57.425c5.109-3.386 6.453-4.229 6.392-3.739a53.619 53.619 0 001.967-1.384l1.986-1.508c1.245-.977 1.995-1.651 2.893-2.419.861-.515 1.879-1.084 3.665-1.931l-3.73 1.681-7.111 4.974a303.827 303.827 0 00-6.062 4.326zM392.862 46.444l.845-.382c.283-.138.541-.125.818-.195.271-.06.56-.092.861-.122a7.38 7.38 0 01.945-.068c-1.493.058-2.471.196-3.469.767zM396.892 133.01l-.559-3.808.077 1.397zM368.42 62.512c.941-.636 2.422-1.698 3.225-2.111.056-.487-4.164 2.746-3.225 2.111zM392.001 54.675c.141-.032.45-.206.854-.462.404-.257.896-.611 1.463-.892a5.445 5.445 0 011.84-.481c.609-.027 1.16.044 1.544.163-1.117-.303-2.174-.321-3.117-.064-.932.268-1.765.896-2.584 1.736zM354.918 73.868c.942-.636 2.512-1.441 2.067-.758 1.247-1.097 2.702-2.911-2.067.758zM382.668 61.149l.787-.402 3.293-2.607zM394.078 59.871c.479-.24.603-.357.491-.539-.104-.158-.45-.292-.746-.294-.295-.016-.549.029-.52-.136.019-.079.101-.223.318-.415.207-.205.573-.445 1.155-.586-.673.007-1.137.271-1.458.479a8.037 8.037 0 00-.688.481c-.278.228-.229.284-.116.314.238.052.668.046-.313.781l-.552.391c.203-.124.395-.234.568-.327.76-.4 1.249-.589 1.559-.533.313.055.401.27.302.384zM391.652 60.347l-.433.272-.633.433 1.066-.705zM336.518 95.821c.533-.432.888-.742 1.211-1.033-.42.34-.816.673-1.211 1.033zM372.391 74.358l5.401-4.606c-3.608 3.075-13.333 9.895-12.354 10 3.221-2.107 6.904-4.914 8.296-6.239l-1.343.845zM299.268 111.432l2.349-1.97-3.161 2.134c.949-.549-.391.98.812-.164zM297.844 112.01l.611-.414c-.142.081-.337.21-.611.414zM347.264 87.863c1.894-1.278 3.377-2.344 5.013-3.639-.778.397-5.495 3.58-5.013 3.639zM282.235 124.592l4.056-2.994-4.468 3.207zM262.37 137.234l-.782.401-3.281 2.598.793-.409zM294.899 129.993c2.833-1.911 4.678-3.927 3.876-3.513l-5.401 3.837c1.672-.551 1.494-1.071 4.708-3.177l-3.183 2.853zM120.214 238.567c1.013-1.132 7.051-5.144 7.549-5.097-.715.676-3.849 3.05-1.712 1.797l4.203-3.989c6.536-3.965-4.103 4.241-7.011 6.653 6.414-4.387 7.978-6.164 14.736-10.922a44.041 44.041 0 01-4.572 2.653c-.57-.322 5.876-4.543 10.35-7.752-3.013 1.809-1.48.464.473-1.196a7.19 7.19 0 00.75-.641l.661-.567-.539.381c0-.082-.166-.063-.617.122-3.677 2.801-6.85 4.432-9.285 6.139 2.956-.907-8.151 6.015-11.037 8.411l-3.474 2.563-1.319.932c-.326.101-.027-.272 1.876-1.845-1.571 1.338-7.211 5.231-6.517 5.12l-1.997 1.409-.467.33c-.092.068-.139.091-.271.198l-.44.362-1.874 1.542-4.07 3.349c-.975 1.274-1.69 2.778-2.105 4.273-.396 1.5-.503 2.98-.381 4.222.111 1.246.384 2.25.611 2.936.257.673.414 1.052.414 1.052.292.755.655 1.479.934 1.996.528.728.846.753.755.66l4.153 3.41 2.139 1.747 1.487 1.046 3.565 2.508 19.162 13.475 27.871 19.601c-2.705-1.999-4.956-3.853-7.729-5.937 4.621 2.476-4.58-3.368-2.984-2.981 2.038 1.168 4.796 3.195 6.378 4.489.796.188-1.423-1.706-.939-1.811-6.806-5.263-8.721-4.829-15.461-9.85.482-.106 2.79 1.128-1.735-1.999l1.188.74c-7.435-4.738-5.134-4.627-10.243-7.001l.423-.348c-3.495-1.976-9.85-6.45-13.472-8.914l.272.067a363.993 363.993 0 01-5.455-3.503c-.619-.413-1.047-.684-1.562-1.062l-1.892-1.521-1.97-1.604-1.191-.967c-.212-.177-.45-.354-.671-.553l-.528-.688c-.703-.993-1.382-2.348-1.747-4.161-.32-1.799-.276-4.146.877-6.533 0 0-.246.55-.48 1.427-.243.872-.396 2.092-.321 3.303.088 1.212.397 2.393.765 3.211.352.826.674 1.323.673 1.323-.759-1.57-.984-3.019-1.073-4.234a12.157 12.157 0 01.259-3.193c.21-.939.532-1.78 1.001-2.621.243-.423.503-.832.881-1.241.453-.377.946-.777 1.495-1.207-.111.152.162.083-.028.384-.095.15-.304.391-.729.792l-.361.332-.324.45a9.755 9.755 0 00-.777 1.248l.118-.243.396-.647c.196-.266.377-.597.729-.929l1.264-1.081 3.21-2.751.868-.741.601-.476 1.226-.971 6.572-5.205c3.036-2.622-.887.155-1.525.329z"/><path d="M137.979 227.01a61.42 61.42 0 002.53-1.759l-2.53 1.759zM168.129 308.196l-3.916-2.753a95.58 95.58 0 003.916 2.753zM156.932 212.247c-2.529 1.449 1.557-1.563 1.854-2.021l-8.494 5.997c.155.139-.555.918-.277.949l6.917-4.925zM147.612 217.643c-.206.318-1.033 1.055-1.972 1.863l4.653-3.284c-.117-.104-.719.151-2.681 1.421zM154.756 225.871l-1.495 1.075-2.186 1.732zM130.709 241.721c1.975-1.015 5.25-3.608 6.345-4.476-3.924 2.778-2.289 1.482-6.345 4.476zM137.466 240.998l-3.687 2.811.388-.199zM198.25 326.881l1.871 1.276a51.11 51.11 0 00-1.871-1.276z"/><path d="M165.461 304.393c8.693 6.85-6.203-3.769-3.801-1.149l5.061 3.259-.536-.129 6.035 4.171c-1.03-1.151-1.942-1.82-1.463-1.931 7.922 5.756 2.273 2.133 7.88 6.646l8.985 6.25-.787-.421c.758.524 1.117.722 1.41.854l30.282 21.059c5.653 3.628-2.655-2.675 1.701-.264-6.359-4.479-15.583-11.454-16.543-11.238.271.068.808.2-.431-.778l-4.022-2.101 3.396 2.627c-4.042-2.117-15.906-10.639-17.851-12.463 6.908 4.617 3.915 1.628 13.149 8.613-.318-.451-1.863-1.937.325-.519-11.207-7.634-20.949-14.906-32.79-22.486zM276.841 382.441l-.126-.008c.221.113.301.137.126.008zM273.173 379.746l-5.813-3.222 8.455 5.888.9.021c-.817-.421-3.917-2.294-4.948-3.261l1.406.574zM260.838 372.458c4.472 2.891 4.575 2.242 2.357.351 4.152 2.59 1.742 2.003 4.852 3.432.155-.411-4.912-3.676-6.088-4.409l-1.121.626zM228.923 349.591l1.364.662-2.976-2.177zM230.287 350.253l2.954 2.161c-.103-.294-.205-.583-.622-1.028l-2.332-1.133zM240.991 358.084c1.241.928 2.623 1.942 4.319 3.156l-4.319-3.156zM237.657 355.551l.057.134 3.277 2.399c-1.191-.907-2.261-1.719-3.334-2.533z"/><path d="M233.24 352.414c.248.68.567 1.436 4.958 4.39l-.484-1.119-4.474-3.271zM116.858 256.936s.265.392.668.624c.398.231.787.422.787.422l-.083-.137-.24-.125c-.145-.075-.347-.173-.526-.308-.373-.26-.602-.659-.602-.659l-.004.183zM132.872 268.988c.888.537 1.572.926 2.2 1.272-.917-.589-1.665-1.033-2.2-1.272zM149.171 277.019c3.784 3.175-5.867-3.462 1.478 1.939.434.778-3.346-1.274-6.744-3.903.489-.102 3.553 2.218 1.61.395-2.573-1.298-3.293-2.157-2.798-1.136-4.117-2.482-4.778-2.471-7.645-4.054 4.878 3.141 14.503 10.612 20.923 14.274 3.695 1.796 2.203-.356 2.766-1.127-.371-.533-8.903-6.675-9.59-6.388zM143.387 271.781c-1.835-1.351-2.426-1.721-3.614-2.461.12.484 2.101 1.413 3.614 2.461zM182.049 307.801c.434.14 3.899 2.376 3.311 1.674l-5.206-3.459c1.185.863 1.512 1.296 1.895 1.785zM177.871 304.497l2.282 1.519a37.71 37.71 0 00-2.282-1.519zM182.243 308.041l-.195-.24c-.087-.028-.091.005.195.24zM253.249 367.01c-.223.163 2.144 1.64 3.331 2.381-.916-.672-2.171-1.662-3.331-2.381zM339.525 426.541l1.891 1.586c-.639-.602-.968-.909-1.891-1.586zM374.627 442.534c.088-.001.261.068.484.177-.218-.115-.383-.177-.484-.177zM375.112 442.711c1.499.791 5.546 4.057 7.262 4.86l-.252-.054 2.952 1.839c-2.678-1.85-8.24-5.818-9.962-6.645z"/></g></svg>